<svg width="518" height="518" viewBox="0 0 518 518" fill="none" xmlns="http://www.w3.org/2000/svg">
<g clip-path="url(#clip0_2988_95)">
<path d="M107.918 291.375H410.085M259.001 291.375V518M140.293 237.417V140.292H114.997C100.623 140.292 86.6583 145.075 75.3025 153.887C63.9466 162.699 55.8456 175.039 52.2761 188.962L10.793 350.729V356.125H161.876V388.5C161.876 420.875 161.876 442.458 178.064 474.833C178.064 474.833 194.251 507.208 215.835 507.208M377.71 237.417V140.292H403.005C417.379 140.292 431.344 145.075 442.7 153.887C454.056 162.699 462.157 175.039 465.726 188.962L507.21 350.729V356.125H356.126V388.5C356.126 420.875 356.126 442.458 339.939 474.833C339.939 474.833 323.751 507.208 302.168 507.208M137.055 97.1251C137.055 97.1251 102.522 75.5417 102.522 48.5626C102.522 38.5566 106.497 28.9604 113.572 21.8851C120.648 14.8098 130.244 10.8349 140.25 10.8349C150.256 10.8349 159.852 14.8098 166.927 21.8851C174.003 28.9604 177.977 38.5566 177.977 48.5626C177.977 75.5417 143.53 97.1251 143.53 97.1251H137.055ZM380.947 97.1251C380.947 97.1251 415.48 75.5417 415.48 48.5626C415.48 38.5451 411.501 28.938 404.418 21.8546C397.334 14.7712 387.727 10.7917 377.71 10.7917C356.86 10.7917 340.025 27.7131 340.025 48.5626C340.025 75.5417 374.472 97.1251 374.472 97.1251H380.947Z" stroke="url(#paint0_linear_2988_95)" stroke-width="30"/>
</g>
<defs>
<linearGradient id="paint0_linear_2988_95" x1="259.001" y1="10.7917" x2="259.001" y2="518" gradientUnits="userSpaceOnUse">
<stop stop-color="#E6612E"/>
<stop offset="1" stop-color="#803CC5"/>
</linearGradient>
<clipPath id="clip0_2988_95">
<rect width="518" height="518" fill="white"/>
</clipPath>
</defs>
</svg>
