<svg width="512" height="512" viewBox="0 0 512 512" fill="none" xmlns="http://www.w3.org/2000/svg">
<path d="M66.5568 25.8658C67.4712 25.8613 68.3857 25.8569 69.3279 25.8523C70.8293 25.8525 70.8293 25.8525 72.3611 25.8528C73.4273 25.8491 74.4936 25.8455 75.5921 25.8417C79.1771 25.8306 82.762 25.8268 86.347 25.823C88.9126 25.8167 91.4782 25.8101 94.0438 25.8031C101.752 25.7838 109.459 25.7732 117.167 25.7643C120.799 25.76 124.431 25.7546 128.063 25.7494C140.139 25.7323 152.216 25.7179 164.293 25.7106C167.426 25.7087 170.559 25.7068 173.692 25.7048C174.47 25.7043 175.249 25.7039 176.051 25.7034C188.66 25.6951 201.27 25.6697 213.879 25.6372C226.831 25.6041 239.784 25.5862 252.736 25.583C260.006 25.5808 267.275 25.5721 274.544 25.5465C281.385 25.5225 288.225 25.519 295.066 25.5293C297.574 25.5298 300.082 25.5234 302.59 25.5097C306.02 25.492 309.449 25.4991 312.879 25.5122C314.36 25.4958 314.36 25.4958 315.871 25.479C323.984 25.5539 330.461 27.6856 337.251 32.125C347.043 42.3621 348.3 52.5017 348.224 66.0859C348.224 67.514 348.224 68.9421 348.226 70.3702C348.227 73.4351 348.223 76.4999 348.214 79.5647C348.202 84.4148 348.209 89.2647 348.219 94.1147C348.248 107.903 348.26 121.691 348.231 135.479C348.215 143.102 348.22 150.724 348.249 158.347C348.263 162.377 348.266 166.406 348.242 170.435C348.22 174.224 348.226 178.013 348.252 181.802C348.257 183.189 348.252 184.576 348.235 185.963C347.982 194.724 347.982 194.724 351.886 202.234C353.423 203.734 353.423 203.734 355.001 205C355.849 205.771 356.697 206.542 357.571 207.336C360.371 209.571 363.177 211.796 366.001 214C366.93 214.745 367.86 215.49 368.817 216.258C389.035 232.047 411.681 240.091 436.569 245.349C439.032 246.008 440.894 246.556 443.001 248C444.68 251.467 445.261 254.309 445.32 258.14C445.339 259.145 445.359 260.15 445.38 261.186C445.391 262.268 445.403 263.35 445.415 264.465C445.444 266.164 445.444 266.164 445.474 267.898C445.534 271.578 445.581 275.258 445.626 278.937C445.662 281.465 445.699 283.993 445.736 286.52C445.823 292.622 445.897 298.725 445.964 304.827C445.996 307.588 446.032 310.348 446.072 313.108C446.252 326.068 446.115 338.943 445.188 351.875C445.083 353.364 445.083 353.364 444.976 354.882C444.609 359.269 444.211 363.3 442.941 367.536C439.201 380.872 444.231 390.057 450.001 402.125C450.935 404.159 451.864 406.195 452.789 408.232C454.633 412.281 456.496 416.319 458.378 420.349C461.656 427.383 464.785 434.478 467.864 441.602C468.668 443.452 469.485 445.297 470.304 447.141C470.785 448.239 471.266 449.337 471.763 450.469C472.175 451.401 472.587 452.334 473.011 453.295C474.084 456.226 474.696 458.894 475.001 462C472.87 466.565 472.87 466.565 470.001 468C464.057 468.73 459.532 466.415 454.227 464.062C453.304 463.663 452.38 463.263 451.428 462.852C448.489 461.578 445.558 460.289 442.626 459C440.63 458.132 438.634 457.265 436.638 456.398C431.754 454.277 426.875 452.143 422.001 450C421.89 450.84 421.779 451.68 421.664 452.546C420.944 456.296 419.762 459.717 418.384 463.262C418.126 463.934 417.868 464.607 417.602 465.3C417.059 466.712 416.512 468.123 415.963 469.532C415.126 471.688 414.303 473.848 413.481 476.01C412.95 477.386 412.417 478.761 411.884 480.137C411.64 480.78 411.396 481.424 411.145 482.088C409.878 485.304 408.786 487.872 406.001 490C403.075 491.001 401.471 491.133 398.484 490.29C395.461 488.719 394.925 487.658 393.641 484.547C393.057 483.167 393.057 483.167 392.461 481.76C392.062 480.767 391.662 479.773 391.251 478.75C390.615 477.228 390.615 477.228 389.966 475.676C388.627 472.457 387.313 469.23 386.001 466C385.119 463.86 384.236 461.721 383.352 459.582C381.215 454.396 379.099 449.202 377.001 444C372.992 445.493 369.363 447.386 365.634 449.477C364.406 450.154 363.178 450.831 361.95 451.508C360.035 452.565 358.123 453.627 356.217 454.701C354.363 455.744 352.5 456.768 350.634 457.789C349.529 458.405 348.424 459.02 347.286 459.655C342.615 461.567 339 461.744 334.253 459.978C333.39 459.507 332.527 459.036 331.638 458.551C330.667 458.032 329.697 457.513 328.698 456.979C327.705 456.429 326.712 455.879 325.688 455.312C323.713 454.245 321.738 453.179 319.763 452.113C318.896 451.637 318.029 451.16 317.136 450.669C312.8 448.361 308.401 446.182 304.001 444C303.782 444.532 303.563 445.064 303.338 445.612C301.059 451.148 298.77 456.678 296.475 462.207C295.62 464.271 294.767 466.336 293.918 468.402C292.696 471.371 291.464 474.336 290.231 477.301C289.853 478.226 289.475 479.151 289.085 480.104C288.725 480.965 288.365 481.825 287.994 482.712C287.524 483.848 287.524 483.848 287.045 485.007C285.433 488.083 283.922 489.685 280.626 490.812C277.41 491.042 275.838 490.523 273.001 489C271.595 486.684 271.595 486.684 270.501 483.793C270.091 482.737 269.681 481.68 269.258 480.592C268.843 479.468 268.428 478.345 268.001 477.188C267.567 476.056 267.132 474.924 266.685 473.758C265.442 470.511 264.221 467.256 263.001 464C262.418 462.483 261.832 460.967 261.243 459.453C260.149 456.64 259.067 453.823 258.001 451C252.254 452.731 246.805 454.9 241.333 457.355C240.301 457.817 240.301 457.817 239.249 458.288C236.373 459.579 233.499 460.875 230.631 462.183C228.515 463.147 226.393 464.096 224.27 465.043C223.63 465.34 222.989 465.637 222.329 465.942C218.4 467.682 215.29 468.493 211.001 468C208.063 465.938 208.063 465.938 206.001 463C206.287 457.349 208.125 452.752 210.38 447.66C210.711 446.893 211.043 446.126 211.384 445.336C212.436 442.908 213.499 440.485 214.563 438.062C215.282 436.409 216 434.754 216.718 433.1C218.47 429.062 220.232 425.03 222.001 421C220.824 420.995 220.824 420.995 219.624 420.99C200.51 420.909 181.396 420.817 162.282 420.712C153.038 420.662 143.795 420.616 134.551 420.578C126.492 420.545 118.432 420.505 110.373 420.457C106.108 420.432 101.843 420.41 97.5783 420.397C93.558 420.384 89.5379 420.362 85.5177 420.333C84.048 420.324 82.5783 420.318 81.1087 420.316C68.5269 420.295 56.8378 419.954 47.0242 411.246C38.5098 402.279 37.4112 392.727 37.4929 380.767C37.4882 379.343 37.4819 377.918 37.474 376.494C37.4573 372.602 37.4655 368.71 37.4779 364.819C37.487 360.613 37.473 356.407 37.462 352.201C37.4442 343.97 37.448 335.74 37.4596 327.51C37.4687 320.819 37.4699 314.129 37.4655 307.438C37.4649 306.485 37.4643 305.531 37.4637 304.549C37.4624 302.612 37.4611 300.676 37.4598 298.739C37.4484 280.591 37.4615 262.442 37.483 244.294C37.5009 228.731 37.4978 213.168 37.4793 197.605C37.4579 179.52 37.4495 161.435 37.4618 143.351C37.463 141.421 37.4643 139.492 37.4655 137.562C37.4661 136.613 37.4668 135.664 37.4674 134.686C37.4709 128.005 37.465 121.325 37.4556 114.644C37.4444 106.5 37.4475 98.3556 37.4687 90.2113C37.4792 86.0581 37.4834 81.9052 37.4701 77.752C37.4582 73.946 37.4648 70.1405 37.4861 66.3345C37.4926 64.3143 37.4796 62.2941 37.4658 60.2739C37.5562 49.7416 39.6744 41.5579 47.0008 33.7578C52.7112 28.7389 58.9551 25.883 66.5568 25.8658ZM55.6883 47.5625C53.0765 51.3351 52.8744 54.1865 52.8666 58.6623C52.8621 59.8489 52.8577 61.0355 52.8531 62.2581C52.8532 63.5682 52.8534 64.8783 52.8536 66.2281C52.8503 67.6288 52.8466 69.0296 52.8425 70.4303C52.8325 74.2885 52.8287 78.1467 52.8261 82.0048C52.8222 86.1624 52.8126 90.32 52.8039 94.4775C52.7841 104.522 52.774 114.566 52.7652 124.61C52.7608 129.338 52.7554 134.065 52.7502 138.793C52.7332 154.504 52.7187 170.216 52.7114 185.927C52.7095 190.005 52.7076 194.083 52.7056 198.16C52.7051 199.174 52.7047 200.187 52.7042 201.232C52.6959 217.659 52.6705 234.086 52.638 250.513C52.605 267.371 52.587 284.229 52.5838 301.086C52.5816 310.554 52.5728 320.023 52.5473 329.491C52.5256 337.552 52.5175 345.614 52.5273 353.675C52.5318 357.789 52.5299 361.903 52.5105 366.018C52.493 369.783 52.4938 373.549 52.5094 377.315C52.5129 379.324 52.4967 381.332 52.4798 383.341C52.5141 391.979 52.5141 391.979 57.0008 399C62.3581 404.075 67.6207 405.252 74.8725 405.241C75.5391 405.242 76.2058 405.244 76.8927 405.246C79.1129 405.249 81.3328 405.238 83.553 405.227C85.15 405.226 86.7469 405.227 88.3438 405.228C92.6698 405.229 96.9957 405.217 101.322 405.203C105.846 405.19 110.37 405.189 114.895 405.187C123.458 405.181 132.022 405.164 140.585 405.144C150.336 405.122 160.087 405.111 169.837 405.101C189.892 405.08 209.946 405.045 230.001 405C231.875 400.994 233.712 396.971 235.544 392.945C236.074 391.813 236.605 390.68 237.151 389.513C240.635 381.79 241.957 377.675 239.188 369.59C232.048 348.004 235.739 320.464 236.001 298C236.013 296.937 236.025 295.874 236.037 294.779C236.113 288.356 236.206 281.934 236.321 275.511C236.357 273.471 236.391 271.431 236.422 269.391C236.467 266.55 236.525 263.711 236.587 260.871C236.598 260.028 236.61 259.186 236.622 258.317C236.818 250.635 236.818 250.635 239.001 248C241.129 247.106 241.129 247.106 243.778 246.543C244.757 246.322 245.736 246.1 246.744 245.872C247.798 245.646 248.852 245.42 249.938 245.187C279.632 238.252 305.089 225.282 327.001 204C328.032 203.24 329.062 202.479 330.124 201.696C334.021 197.746 333.73 193.522 333.792 188.204C333.776 186.892 333.761 185.579 333.745 184.227C333.75 182.82 333.758 181.414 333.768 180.007C333.786 176.197 333.768 172.388 333.741 168.577C333.718 164.583 333.726 160.588 333.73 156.593C333.732 149.883 333.71 143.173 333.673 136.463C333.631 128.719 333.624 120.974 333.636 113.23C333.648 105.766 333.636 98.303 333.614 90.8396C333.605 87.6699 333.603 84.5003 333.607 81.3307C333.611 77.5925 333.595 73.8549 333.563 70.1169C333.551 68.1003 333.557 66.0837 333.565 64.0671C333.482 56.9126 332.928 52.0512 329.001 46C325.072 42.2624 322.012 40.8782 316.635 40.8658C315.737 40.8613 314.84 40.8569 313.915 40.8523C312.928 40.8524 311.941 40.8526 310.924 40.8528C309.876 40.8491 308.828 40.8455 307.749 40.8417C304.22 40.8306 300.692 40.8268 297.164 40.823C294.641 40.8167 292.118 40.8101 289.596 40.8031C282.013 40.7838 274.431 40.7732 266.849 40.7643C263.279 40.76 259.709 40.7546 256.139 40.7494C244.272 40.7323 232.406 40.7179 220.539 40.7106C217.46 40.7087 214.381 40.7068 211.302 40.7048C210.537 40.7043 209.771 40.7039 208.983 40.7034C196.581 40.6951 184.179 40.6697 171.777 40.6372C159.046 40.6042 146.316 40.5862 133.585 40.583C126.436 40.5808 119.288 40.572 112.139 40.5465C105.416 40.5225 98.6929 40.519 91.9697 40.5293C89.5002 40.5298 87.0306 40.5234 84.5611 40.5097C81.1934 40.4921 77.8266 40.4991 74.4588 40.5122C73.4784 40.5013 72.4979 40.4903 71.4878 40.479C64.411 40.5461 60.5399 42.1864 55.6883 47.5625ZM340.001 212C339.586 212.45 339.171 212.9 338.743 213.363C314.879 238.275 283.654 251.188 251.001 260C244.007 332.639 244.007 332.639 268.563 397.562C270.02 399.064 271.502 400.541 273.001 402C273.776 402.803 273.776 402.803 274.566 403.623C278.66 407.839 282.925 411.499 287.688 414.938C288.439 415.48 289.191 416.023 289.964 416.583C300.347 423.882 311.501 430.02 322.613 436.128C324.949 437.419 327.265 438.727 329.573 440.067C330.718 440.718 331.864 441.369 333.044 442.039C334.069 442.632 335.094 443.224 336.15 443.834C339.473 445.193 340.65 445.174 344.001 444C346.064 443.031 348.093 441.987 350.095 440.895C350.675 440.579 351.255 440.263 351.852 439.938C353.74 438.905 355.621 437.86 357.501 436.812C358.144 436.456 358.788 436.1 359.451 435.732C387.873 419.956 416.446 402.697 426.903 370.195C436.109 335.662 430.949 295.368 430.001 260C429.352 259.819 428.704 259.639 428.036 259.453C396.164 250.519 369.691 238.513 345.13 215.883C342.945 213.865 342.945 213.865 340.001 212ZM248.001 399C245.451 404.906 242.907 410.815 240.365 416.725C239.5 418.735 238.634 420.745 237.767 422.754C236.52 425.642 235.278 428.532 234.036 431.422C233.647 432.32 233.259 433.218 232.858 434.143C232.498 434.984 232.138 435.824 231.767 436.69C231.29 437.796 231.29 437.796 230.804 438.924C230.027 440.933 229.473 442.901 229.001 445C232.973 444.363 236.273 443.12 239.93 441.461C241.056 440.963 242.181 440.466 243.341 439.953C245.694 438.903 248.043 437.843 250.388 436.773C251.515 436.278 252.643 435.783 253.805 435.273C254.826 434.814 255.847 434.354 256.899 433.88C260.695 432.803 263.198 432.997 267.001 434C268.432 435.498 268.432 435.498 269.212 437.441C269.514 438.163 269.817 438.885 270.129 439.629C270.417 440.412 270.704 441.194 271.001 442C271.46 443.199 271.46 443.199 271.928 444.421C273.18 447.78 274.357 451.163 275.532 454.549C275.969 455.776 275.969 455.776 276.415 457.027C276.672 457.767 276.93 458.507 277.195 459.269C277.874 461.196 277.874 461.196 280.001 462C281.71 458.113 283.389 454.214 285.063 450.312C285.549 449.21 286.034 448.107 286.534 446.971C286.988 445.904 287.443 444.837 287.911 443.738C288.335 442.759 288.759 441.78 289.196 440.771C290.093 437.681 290.022 436.029 289.001 433C286.97 431.256 286.97 431.256 284.313 429.875C272.318 422.7 260.088 413.511 252.063 401.938C251.042 400.483 251.042 400.483 250.001 399C249.341 399 248.681 399 248.001 399ZM431.001 399C430.235 400 430.235 400 429.454 401.02C420.139 412.829 409.746 421.517 397.236 429.761C396.046 430.547 396.046 430.547 394.833 431.348C394.118 431.812 393.404 432.276 392.668 432.754C390.857 433.913 390.857 433.913 390.001 436C390.907 438.752 390.907 438.752 392.309 441.883C392.809 443.049 393.308 444.216 393.823 445.418C394.361 446.654 394.9 447.889 395.438 449.125C395.974 450.368 396.508 451.612 397.042 452.855C398.355 455.907 399.674 458.955 401.001 462C403.39 459.091 404.715 456.466 405.903 452.902C406.236 451.936 406.57 450.97 406.913 449.975C407.597 447.948 408.277 445.919 408.952 443.889C409.286 442.924 409.621 441.959 409.966 440.965C410.261 440.084 410.556 439.204 410.86 438.297C412.199 435.601 413.401 434.489 416.001 433C423.985 432.843 430.898 436.779 438.001 440.062C439.265 440.637 440.529 441.211 441.794 441.783C444.867 443.179 447.936 444.585 451.001 446C452.344 441.969 451.226 440.674 449.466 436.855C449.19 436.249 448.914 435.643 448.63 435.018C447.742 433.07 446.841 431.129 445.938 429.188C445.067 427.292 444.199 425.395 443.332 423.498C442.755 422.237 442.175 420.976 441.594 419.716C440.109 416.486 438.669 413.244 437.298 409.963C437.027 409.317 436.757 408.67 436.478 408.004C435.734 406.214 434.999 404.42 434.265 402.626C433.274 399.881 433.274 399.881 431.001 399Z" fill="url(#paint0_linear_3013_135)"/>
<path d="M98.4199 64.7327C99.1576 64.7282 99.8954 64.7236 100.655 64.719C103.123 64.7063 105.59 64.7079 108.057 64.7096C109.828 64.7036 111.599 64.6968 113.37 64.6892C118.178 64.6716 122.986 64.6669 127.794 64.6656C130.799 64.6642 133.804 64.6599 136.809 64.6546C147.296 64.6361 157.783 64.6279 168.27 64.6295C178.04 64.6307 187.809 64.6096 197.579 64.578C205.972 64.5519 214.364 64.5412 222.757 64.5424C227.767 64.5429 232.777 64.5373 237.788 64.5161C242.501 64.4967 247.215 64.4966 251.929 64.5111C253.656 64.5132 255.383 64.5085 257.11 64.4964C273.321 64.3901 273.321 64.3901 280.001 69.0001C282.06 71.0353 282.06 71.0353 283.438 73.0626C283.912 73.7342 284.385 74.4058 284.872 75.0978C287.379 79.323 287.162 83.4481 287.178 88.2001C287.185 89.0362 287.191 89.8724 287.198 90.7339C287.218 93.5036 287.229 96.2733 287.239 99.0431C287.243 99.9902 287.247 100.937 287.252 101.913C287.272 106.928 287.287 111.943 287.296 116.957C287.307 122.128 287.342 127.298 287.381 132.468C287.408 136.452 287.416 140.435 287.419 144.418C287.424 146.323 287.436 148.229 287.454 150.134C287.479 152.807 287.478 155.48 287.471 158.153C287.49 159.323 287.49 159.323 287.51 160.517C287.449 166.97 285.45 172.042 281.325 177.024C280.785 177.47 280.245 177.916 279.688 178.375C278.89 179.067 278.89 179.067 278.075 179.774C272.902 182.832 267.419 183.251 261.531 183.261C260.453 183.267 260.453 183.267 259.352 183.272C256.961 183.283 254.569 183.279 252.177 183.275C250.455 183.279 248.733 183.284 247.011 183.29C242.346 183.304 237.68 183.304 233.015 183.302C229.116 183.301 225.217 183.306 221.318 183.31C212.118 183.321 202.917 183.322 193.717 183.316C184.235 183.31 174.753 183.322 165.27 183.343C157.12 183.361 148.969 183.367 140.819 183.364C135.955 183.362 131.091 183.365 126.227 183.378C121.653 183.391 117.079 183.389 112.504 183.376C110.829 183.374 109.154 183.376 107.478 183.385C96.3009 183.436 87.4255 183.229 79.001 175C75.0524 169.418 74.8474 164.566 74.824 157.87C74.8174 157.053 74.8108 156.237 74.8041 155.395C74.7844 152.696 74.7727 149.996 74.7627 147.297C74.7586 146.373 74.7545 145.449 74.7503 144.497C74.7295 139.605 74.7152 134.714 74.7058 129.822C74.6948 124.78 74.6604 119.739 74.6206 114.698C74.5944 110.811 74.5861 106.925 74.5825 103.039C74.5777 101.181 74.5661 99.3231 74.5475 97.4654C74.523 94.8591 74.5241 92.2539 74.531 89.6476C74.5182 88.8878 74.5054 88.1281 74.4922 87.3453C74.5537 80.9654 76.5625 75.8259 80.7471 70.9767C81.3052 70.5307 81.8634 70.0847 82.4385 69.6251C82.9941 69.1636 83.5496 68.7022 84.1221 68.2267C88.8198 65.16 92.859 64.7468 98.4199 64.7327ZM91.5891 81.8132C89.2937 84.974 89.4338 87.9733 89.4675 91.7345C89.4589 92.5089 89.4503 93.2834 89.4414 94.0813C89.4187 96.6379 89.4255 99.1934 89.4346 101.75C89.4293 103.528 89.4231 105.307 89.4158 107.085C89.4054 110.811 89.4099 114.536 89.4246 118.262C89.4418 123.037 89.4182 127.811 89.3831 132.587C89.3611 136.259 89.3625 139.93 89.3708 143.602C89.3717 145.362 89.3648 147.123 89.3501 148.884C89.3327 151.345 89.3471 153.804 89.3699 156.266C89.3582 156.993 89.3465 157.721 89.3344 158.47C89.4001 161.96 89.6476 163.631 92.0962 166.187C95.7027 168.438 97.8701 168.498 102.105 168.495C102.809 168.499 103.513 168.504 104.238 168.509C106.59 168.52 108.942 168.503 111.294 168.486C112.983 168.488 114.672 168.492 116.361 168.497C120.943 168.507 125.525 168.492 130.108 168.472C134.903 168.454 139.698 168.458 144.492 168.458C152.543 168.456 160.594 168.439 168.645 168.412C177.956 168.38 187.266 168.37 196.577 168.371C205.532 168.372 214.486 168.362 223.441 168.346C227.253 168.339 231.065 168.335 234.877 168.334C239.365 168.332 243.852 168.32 248.339 168.3C249.987 168.294 251.635 168.291 253.283 168.292C255.53 168.293 257.777 168.282 260.024 168.268C261.282 168.264 262.54 168.261 263.837 168.257C266.839 168.013 268.534 167.681 271.001 166C272.53 162.941 272.157 159.742 272.162 156.385C272.167 155.6 272.172 154.814 272.177 154.005C272.192 151.4 272.199 148.796 272.204 146.192C272.21 144.386 272.216 142.58 272.221 140.774C272.232 136.985 272.238 133.196 272.241 129.407C272.247 124.547 272.271 119.687 272.299 114.826C272.318 111.095 272.323 107.365 272.325 103.634C272.328 101.841 272.336 100.049 272.349 98.257C272.366 95.7527 272.364 93.2489 272.357 90.7445C272.371 89.6293 272.371 89.6293 272.385 88.4915C272.384 84.7089 272.384 84.7089 270.914 81.3105C267.998 79.3129 265.531 79.6191 262.023 79.6124C261.309 79.6071 260.595 79.6017 259.859 79.5961C257.459 79.5818 255.059 79.589 252.659 79.5961C250.941 79.5904 249.223 79.5834 247.505 79.5753C242.834 79.5573 238.162 79.5585 233.491 79.5642C229.594 79.5673 225.697 79.5612 221.801 79.5552C212.609 79.5411 203.418 79.5427 194.226 79.5541C184.737 79.5656 175.248 79.5515 165.759 79.5247C157.618 79.5025 149.477 79.4959 141.336 79.5018C136.471 79.5051 131.606 79.5027 126.741 79.4855C122.167 79.4701 117.593 79.474 113.019 79.4928C111.339 79.4965 109.658 79.4934 107.978 79.4829C105.687 79.4698 103.397 79.4812 101.105 79.4989C99.1811 79.4992 99.1811 79.4992 97.2178 79.4996C93.9378 79.7514 93.9378 79.7514 91.5891 81.8132Z" fill="url(#paint1_linear_3013_135)"/>
<path d="M344.999 223C347.423 224.91 349.428 227.158 351.499 229.438C368.195 246.815 388.735 256.383 411.999 262C420.16 264.139 420.16 264.139 421.999 267C422.957 271.51 423.131 275.833 423.145 280.436C423.148 281.155 423.151 281.875 423.155 282.616C423.164 284.984 423.166 287.351 423.167 289.719C423.171 291.381 423.174 293.042 423.177 294.704C423.183 298.188 423.185 301.671 423.185 305.154C423.185 309.581 423.198 314.007 423.215 318.434C423.227 321.869 423.229 325.304 423.228 328.74C423.229 330.369 423.234 331.999 423.241 333.628C423.342 356.732 419.974 377.115 403.874 394.625C391.203 406.324 375.934 414.607 360.999 423C359.699 423.742 359.699 423.742 358.373 424.498C356.07 425.808 353.757 427.096 351.437 428.375C350.778 428.75 350.119 429.126 349.439 429.512C345.053 431.87 341.936 432.735 336.999 432C333.302 430.548 329.858 428.714 326.374 426.813C325.37 426.275 324.366 425.738 323.332 425.184C271.286 396.97 271.286 396.97 261.839 370.859C255.007 347.599 256.866 322.237 257.199 298.279C257.232 295.806 257.262 293.333 257.288 290.859C257.327 287.344 257.387 283.831 257.453 280.316C257.462 279.25 257.472 278.183 257.482 277.084C257.699 267.695 257.699 267.695 260.999 264C263.472 263.108 265.574 262.541 268.124 262.063C269.578 261.741 271.029 261.413 272.48 261.078C273.602 260.82 273.602 260.82 274.747 260.557C298.015 254.806 317.459 242.406 333.792 225.117C337.477 221.582 340.259 221.579 344.999 223ZM335.749 244.938C319.851 259.307 301.691 268.072 281.339 274.273C278.545 275.141 275.772 276.068 272.999 277C272.828 283.451 272.669 289.903 272.517 296.354C272.465 298.539 272.409 300.724 272.351 302.908C270.147 345.684 270.147 345.684 288.185 382.925C299.042 393.862 312.528 401.279 325.845 408.777C327.739 409.852 329.614 410.951 331.484 412.066C332.438 412.622 333.392 413.178 334.374 413.75C335.166 414.219 335.957 414.688 336.773 415.172C339.654 416.243 341.042 415.793 343.999 415C345.818 414.153 347.603 413.233 349.359 412.262C350.384 411.695 351.41 411.128 352.466 410.544C353.549 409.931 354.633 409.319 355.749 408.688C356.865 408.058 357.98 407.429 359.129 406.78C379.149 395.322 398.415 383.015 405.374 359.75C408.108 349.624 408.135 339.748 408.097 329.344C408.095 327.831 408.094 326.318 408.093 324.804C408.089 320.846 408.079 316.887 408.068 312.929C408.058 308.879 408.053 304.83 408.048 300.781C408.038 292.854 408.021 284.927 407.999 277C407.236 276.754 406.473 276.507 405.687 276.253C402.172 275.114 398.662 273.963 395.152 272.813C393.951 272.425 392.751 272.038 391.514 271.639C372.653 265.43 357.208 255.895 342.644 242.434C339.477 239.673 338.452 242.388 335.749 244.938Z" fill="url(#paint2_linear_3013_135)"/>
<path d="M158.047 92.6759C166.525 98.4243 172.205 105.033 175 115C175.812 122.966 175.382 129.766 171.875 137.012C170.799 139.096 170.799 139.096 171 142C171.66 142.743 172.32 143.485 173 144.25C175.556 147.764 175.552 149.743 175 154C173.392 156.839 171.88 157.039 168.75 158.063C164.543 157.993 164.338 157.72 161.562 154.938C159.864 153.221 159.864 153.221 158 152C154.657 152.488 154.657 152.488 152.426 153.328C144.659 155.479 135.674 154.862 128.383 151.457C120.188 146.447 114.377 140.423 111.43 131.219C109.716 122.37 109.9 112.635 115 105C124.838 91.6313 142.241 84.0791 158.047 92.6759ZM128.062 112.625C125.407 117.347 125.092 121.707 126 127C127.679 132.381 131.09 135.375 135.894 138.133C139.112 139.458 141.563 139.358 145 139C144.319 137.969 143.639 136.938 142.937 135.875C141.321 133.049 140.998 132.078 141.062 128.688C142 126 142 126 145 124C148.021 123.53 150.059 123.362 152.652 125.121C154.123 126.39 155.563 127.694 157 129C157.66 129 158.32 129 159 129C160.77 123.691 160.698 118.926 158.5 113.813C155.991 109.364 152.778 106.779 148 105C139.523 103.501 133.122 105.643 128.062 112.625Z" fill="url(#paint3_linear_3013_135)"/>
<path d="M167.592 329.371C168.616 329.369 169.641 329.366 170.696 329.364C172.858 329.365 175.02 329.378 177.181 329.403C180.487 329.437 183.79 329.424 187.096 329.404C189.199 329.411 191.302 329.421 193.405 329.434C194.391 329.429 195.378 329.424 196.394 329.419C200.455 329.488 203.391 329.727 207.123 331.404C210.039 335.44 209.676 339.234 209.592 344.094C209.592 345.077 209.592 346.061 209.592 347.075C209.587 349.152 209.569 351.23 209.54 353.308C209.499 356.489 209.499 359.667 209.506 362.848C209.496 364.867 209.483 366.887 209.467 368.906C209.467 369.857 209.467 370.808 209.467 371.788C209.451 372.676 209.435 373.564 209.418 374.478C209.41 375.257 209.401 376.035 209.393 376.837C208.891 379.588 207.895 380.968 205.998 383C203.212 383.929 201.488 384.136 198.606 384.161C197.722 384.171 196.837 384.18 195.926 384.19C194.496 384.197 194.496 384.197 193.037 384.203C191.563 384.212 191.563 384.212 190.06 384.22C187.98 384.23 185.9 384.236 183.821 384.24C180.643 384.25 177.465 384.281 174.287 384.312C172.267 384.319 170.246 384.324 168.225 384.328C167.276 384.34 166.327 384.353 165.349 384.365C160.44 384.349 156.94 384.288 152.998 381C151.853 378.71 151.849 377.361 151.806 374.813C151.789 373.949 151.773 373.084 151.757 372.193C151.712 368.237 151.671 364.281 151.648 360.325C151.632 358.239 151.604 356.152 151.566 354.066C151.511 351.058 151.49 348.051 151.475 345.043C151.452 344.113 151.43 343.182 151.406 342.224C151.42 337.982 151.637 335.597 153.869 331.912C158.425 329.128 162.346 329.301 167.592 329.371ZM166.998 345C166.998 352.92 166.998 360.84 166.998 369C175.908 369 184.818 369 193.998 369C193.998 361.08 193.998 353.16 193.998 345C185.088 345 176.178 345 166.998 345Z" fill="url(#paint4_linear_3013_135)"/>
<path d="M87.4822 329.823C88.3868 329.81 89.2914 329.797 90.2234 329.784C91.1984 329.777 92.1735 329.769 93.178 329.762C94.183 329.753 95.1879 329.745 96.2232 329.737C98.3499 329.723 100.477 329.713 102.603 329.705C105.854 329.687 109.103 329.644 112.354 329.599C114.42 329.589 116.487 329.581 118.553 329.574C120.01 329.548 120.01 329.548 121.495 329.521C125.526 329.534 128.4 329.735 132.114 331.38C135.068 335.487 134.675 339.41 134.592 344.347C134.592 345.356 134.592 346.364 134.592 347.403C134.587 349.532 134.569 351.661 134.54 353.79C134.498 357.054 134.499 360.316 134.506 363.58C134.496 365.648 134.483 367.717 134.467 369.785C134.467 370.763 134.467 371.741 134.466 372.749C134.451 373.657 134.435 374.565 134.418 375.5C134.41 376.299 134.401 377.097 134.393 377.92C133.898 380.531 133.083 381.392 130.998 383C128.212 383.929 126.488 384.136 123.606 384.161C122.722 384.171 121.837 384.18 120.926 384.19C119.496 384.196 119.496 384.196 118.037 384.203C116.563 384.212 116.563 384.212 115.059 384.22C112.98 384.23 110.9 384.236 108.821 384.24C105.643 384.25 102.465 384.281 99.2874 384.312C97.2666 384.319 95.2458 384.324 93.2249 384.328C92.2758 384.34 91.3267 384.353 90.3488 384.365C81.8484 384.337 81.8484 384.337 77.9984 381C77.0851 378.26 76.8631 376.6 76.8372 373.775C76.8276 372.928 76.818 372.08 76.8081 371.207C76.8039 370.294 76.7996 369.381 76.7952 368.441C76.7895 367.501 76.7838 366.56 76.778 365.591C76.7685 363.601 76.762 361.611 76.7581 359.622C76.7484 356.578 76.7174 353.534 76.6859 350.49C76.6793 348.557 76.6741 346.624 76.6702 344.691C76.6579 343.781 76.6455 342.87 76.6328 341.932C76.655 335.655 76.655 335.655 78.3314 332.457C81.1636 329.982 83.8824 329.867 87.4822 329.823ZM91.9984 345C91.9984 352.92 91.9984 360.84 91.9984 369C100.908 369 109.818 369 118.998 369C118.998 361.08 118.998 353.16 118.998 345C110.088 345 101.178 345 91.9984 345Z" fill="url(#paint5_linear_3013_135)"/>
<path d="M218.312 89.6875C222.676 90.0573 223.253 90.7656 226 94C227.334 96.198 227.334 96.198 228.518 98.6099C228.968 99.5183 229.419 100.427 229.883 101.363C230.592 102.827 230.592 102.827 231.316 104.32C231.814 105.334 232.312 106.348 232.824 107.393C233.875 109.537 234.921 111.684 235.963 113.833C237.549 117.098 239.151 120.354 240.756 123.609C241.777 125.7 242.797 127.791 243.816 129.883C244.291 130.847 244.766 131.811 245.256 132.804C248.055 138.607 250.925 144.598 252 151C250.892 153.714 250.014 154.986 248 157C244.75 157.375 244.75 157.375 241 157C236.526 153.352 234.425 149.347 232.187 144.188C231.135 141.816 230.083 139.444 229 137C222.07 136.67 215.14 136.34 208 136C207.34 137.98 206.68 139.96 206 142C205.06 144.081 204.08 146.144 203.062 148.188C202.558 149.212 202.054 150.237 201.535 151.293C200.177 153.688 199.173 155.339 197 157C193.15 157.49 190.892 157.513 187.5 155.562C185.235 151.693 186.022 148.196 187 144C188.528 140.148 190.43 136.531 192.375 132.875C193.468 130.761 194.559 128.647 195.648 126.531C196.205 125.456 196.761 124.381 197.335 123.273C200.484 117.082 203.412 110.784 206.345 104.488C213.091 90.1801 213.091 90.1801 218.312 89.6875ZM218 115C216.515 118.465 216.515 118.465 215 122C217.31 122 219.62 122 222 122C221.398 119.98 220.727 117.979 220 116C219.34 115.67 218.68 115.34 218 115Z" fill="url(#paint6_linear_3013_135)"/>
<path d="M376 286C378.375 287 378.375 287 380 289C380.657 295.63 379.271 299.388 375.875 305C375.43 305.768 374.985 306.535 374.526 307.327C373.033 309.894 371.516 312.446 370 315C368.925 316.84 367.852 318.681 366.781 320.523C365.066 323.473 363.348 326.42 361.619 329.362C358.246 335.104 354.935 340.874 351.688 346.687C350.962 347.98 350.236 349.272 349.51 350.565C348.447 352.458 347.387 354.353 346.34 356.254C345.369 358.016 344.384 359.77 343.398 361.523C342.838 362.533 342.278 363.543 341.701 364.583C339.924 367.108 338.9 368.041 336 369C330.841 368.804 328.084 366.938 324.125 363.75C323.582 363.314 323.039 362.878 322.479 362.429C321.294 361.475 320.112 360.517 318.933 359.555C316.859 357.886 314.75 356.27 312.633 354.656C311.171 353.521 309.71 352.386 308.25 351.25C307.546 350.72 306.843 350.19 306.118 349.643C302.919 347.111 301.241 345.748 299.965 341.785C300.008 338.337 300.912 336.707 303 334C305.924 332.538 307.741 332.619 311 333C313.555 334.445 315.714 336.282 317.938 338.187C319.112 339.162 320.288 340.134 321.465 341.105C322.04 341.584 322.614 342.063 323.207 342.556C326.044 344.841 329.014 346.914 332 349C332.351 348.368 332.702 347.737 333.063 347.086C367.41 285.313 367.41 285.313 376 286Z" fill="url(#paint7_linear_3013_135)"/>
<path d="M163.215 203.628C164.029 203.624 164.842 203.62 165.681 203.617C168.361 203.609 171.042 203.622 173.723 203.637C175.589 203.637 177.456 203.637 179.322 203.635C183.23 203.635 187.138 203.646 191.046 203.664C196.055 203.687 201.064 203.687 206.074 203.68C209.927 203.677 213.779 203.684 217.632 203.693C219.479 203.697 221.326 203.698 223.173 203.697C225.754 203.697 228.334 203.709 230.914 203.725C231.678 203.723 232.441 203.72 233.227 203.718C240.052 203.786 240.052 203.786 243 206C244.438 209.313 244.438 209.313 245 213C243.885 215.443 242.886 217.114 241 219C238.283 219.122 235.59 219.179 232.872 219.193C232.02 219.201 231.168 219.209 230.29 219.218C227.458 219.243 224.625 219.259 221.793 219.273C220.346 219.281 220.346 219.281 218.869 219.29C213.761 219.316 208.654 219.336 203.547 219.35C198.263 219.367 192.981 219.412 187.698 219.463C183.643 219.496 179.588 219.508 175.533 219.513C173.585 219.52 171.637 219.535 169.69 219.559C166.965 219.591 164.241 219.591 161.516 219.584C160.306 219.608 160.306 219.608 159.071 219.633C155.183 219.59 153.388 219.354 150.472 216.69C149 214 149 214 148.938 210.375C150 207 150 207 152.053 205.312C155.814 203.637 159.176 203.587 163.215 203.628Z" fill="url(#paint8_linear_3013_135)"/>
<path d="M160.709 250.596C161.374 250.589 162.04 250.582 162.726 250.575C164.92 250.557 167.114 250.561 169.309 250.567C170.838 250.562 172.367 250.557 173.896 250.551C177.1 250.542 180.303 250.544 183.507 250.554C187.607 250.566 191.707 250.545 195.807 250.516C198.965 250.498 202.123 250.498 205.281 250.504C206.792 250.504 208.304 250.498 209.815 250.486C211.931 250.471 214.046 250.481 216.162 250.499C217.966 250.499 217.966 250.499 219.806 250.499C223.648 251.102 225.319 252.218 228 255C228.562 258.5 228.562 258.5 228 262C225.781 265.024 224.588 265.904 220.85 266.515C218.99 266.524 218.99 266.524 217.092 266.534C216.405 266.542 215.718 266.551 215.011 266.56C212.747 266.582 210.483 266.576 208.219 266.567C206.642 266.572 205.066 266.578 203.489 266.585C200.187 266.596 196.886 266.591 193.583 266.577C189.353 266.559 185.124 266.583 180.893 266.618C177.638 266.64 174.384 266.639 171.129 266.63C169.569 266.63 168.009 266.636 166.45 266.651C164.268 266.669 162.089 266.654 159.908 266.631C158.048 266.63 158.048 266.63 156.15 266.628C153 266 153 266 150.568 263.687C149 261 149 261 149 257.375C150.882 251.025 154.522 250.624 160.709 250.596Z" fill="url(#paint9_linear_3013_135)"/>
<path d="M86.4177 297.596C88.0798 297.577 88.0798 297.577 89.7754 297.557C90.9723 297.56 92.1692 297.563 93.4023 297.566C95.2462 297.558 95.2462 297.558 97.1273 297.55C100.396 297.542 103.664 297.549 106.932 297.561C110.251 297.563 113.57 297.528 116.889 297.502C119.414 297.5 121.939 297.501 124.465 297.504C125.66 297.493 126.855 297.481 128.086 297.47C129.752 297.484 129.752 297.484 131.453 297.498C132.918 297.498 132.918 297.498 134.413 297.499C137.757 298.147 138.94 299.332 141 302C141.562 305.5 141.562 305.5 141 309C138.796 311.707 136.96 312.855 133.493 313.378C130.281 313.548 127.092 313.58 123.875 313.566C122.106 313.576 122.106 313.576 120.3 313.585C117.809 313.592 115.318 313.589 112.826 313.576C109.013 313.562 105.203 313.596 101.391 313.635C98.9687 313.636 96.5469 313.634 94.125 313.629C92.9853 313.642 91.8456 313.655 90.6714 313.669C82.8122 313.576 82.8122 313.576 78.7422 310.687C77 308 77 308 77 304.375C78.6738 298.726 80.6214 297.628 86.4177 297.596Z" fill="url(#paint10_linear_3013_135)"/>
<path d="M87.3303 250.596C88.9274 250.577 88.9274 250.577 90.5566 250.557C91.7015 250.56 92.8463 250.563 94.0259 250.566C95.207 250.561 96.388 250.556 97.6049 250.55C100.102 250.544 102.6 250.545 105.097 250.554C108.918 250.562 112.738 250.534 116.559 250.502C118.986 250.5 121.412 250.501 123.838 250.504C125.553 250.487 125.553 250.487 127.302 250.47C135.178 250.539 135.178 250.539 139.223 252.812C140.999 255 140.999 255 141.561 258.5C140.907 262.571 140.182 263.499 136.999 266C134.418 266.515 134.418 266.515 131.467 266.533C130.359 266.549 129.251 266.565 128.11 266.581C126.918 266.576 125.726 266.571 124.499 266.566C123.271 266.572 122.043 266.579 120.778 266.585C118.182 266.592 115.586 266.589 112.991 266.576C109.013 266.562 105.038 266.596 101.061 266.635C98.5402 266.636 96.0194 266.634 93.4985 266.629C92.3068 266.642 91.1151 266.655 89.8872 266.669C81.6917 266.576 81.6917 266.576 78.2173 263.687C76.5416 259.992 76.856 257.856 77.9985 254C81.0051 251.069 83.199 250.62 87.3303 250.596Z" fill="url(#paint11_linear_3013_135)"/>
<path d="M88.2625 203.612C89.7994 203.597 89.7994 203.597 91.3673 203.583C92.4632 203.589 93.5591 203.595 94.6883 203.601C95.8236 203.599 96.9588 203.596 98.1285 203.593C100.526 203.591 102.923 203.596 105.32 203.609C108.988 203.625 112.654 203.609 116.321 203.59C118.652 203.592 120.983 203.596 123.313 203.601C124.957 203.592 124.957 203.592 126.634 203.583C127.659 203.592 128.683 203.602 129.739 203.612C130.637 203.614 131.534 203.616 132.459 203.619C135.853 204.128 138.559 205.559 141.001 208C141.588 214.229 141.588 214.229 139.327 217.197C136.478 219.405 135.043 219.511 131.47 219.533C130.362 219.549 129.254 219.565 128.112 219.581C126.92 219.576 125.729 219.571 124.501 219.566C123.273 219.572 122.045 219.579 120.78 219.585C118.184 219.592 115.589 219.589 112.993 219.576C109.016 219.562 105.041 219.596 101.063 219.635C98.5425 219.636 96.0216 219.634 93.5008 219.629C92.3091 219.642 91.1173 219.655 89.8895 219.669C81.6929 219.576 81.6929 219.576 78.2235 216.687C76.5296 212.964 76.7811 210.874 78.0008 207C81.4497 204.4 83.9824 203.623 88.2625 203.612Z" fill="url(#paint12_linear_3013_135)"/>
<path d="M158.418 297.58C159.526 297.564 160.634 297.548 161.775 297.532C162.972 297.532 164.169 297.531 165.402 297.531C166.632 297.524 167.861 297.516 169.127 297.508C172.396 297.494 175.664 297.497 178.932 297.502C182.251 297.498 185.57 297.451 188.889 297.414C191.414 297.409 193.939 297.406 196.465 297.406C198.257 297.382 198.257 297.382 200.086 297.356C208.308 297.425 208.308 297.425 211.783 300.31C213.455 304.007 213.143 306.144 212 310C208.996 312.927 206.796 313.383 202.668 313.42C201.604 313.436 200.539 313.452 199.442 313.468C197.725 313.468 197.725 313.468 195.973 313.469C194.792 313.476 193.611 313.484 192.394 313.492C189.896 313.503 187.399 313.505 184.902 313.501C181.08 313.5 177.261 313.542 173.439 313.586C171.013 313.591 168.587 313.594 166.16 313.594C164.446 313.618 164.446 313.618 162.697 313.643C154.811 313.575 154.811 313.575 150.74 310.689C149 308 149 308 149 304.375C150.673 298.728 152.624 297.63 158.418 297.58Z" fill="url(#paint13_linear_3013_135)"/>
<defs>
<linearGradient id="paint0_linear_3013_135" x1="256.225" y1="25.479" x2="256.225" y2="490.864" gradientUnits="userSpaceOnUse">
<stop stop-color="#E6612E"/>
<stop offset="1" stop-color="#803CC5"/>
</linearGradient>
<linearGradient id="paint1_linear_3013_135" x1="181.001" y1="64.4702" x2="181.001" y2="183.389" gradientUnits="userSpaceOnUse">
<stop stop-color="#E6612E"/>
<stop offset="1" stop-color="#803CC5"/>
</linearGradient>
<linearGradient id="paint2_linear_3013_135" x1="339.981" y1="222.112" x2="339.981" y2="432.255" gradientUnits="userSpaceOnUse">
<stop stop-color="#E6612E"/>
<stop offset="1" stop-color="#803CC5"/>
</linearGradient>
<linearGradient id="paint3_linear_3013_135" x1="142.903" y1="89.0186" x2="142.903" y2="158.063" gradientUnits="userSpaceOnUse">
<stop stop-color="#E6612E"/>
<stop offset="1" stop-color="#803CC5"/>
</linearGradient>
<linearGradient id="paint4_linear_3013_135" x1="180.529" y1="329.341" x2="180.529" y2="384.365" gradientUnits="userSpaceOnUse">
<stop stop-color="#E6612E"/>
<stop offset="1" stop-color="#803CC5"/>
</linearGradient>
<linearGradient id="paint5_linear_3013_135" x1="105.644" y1="329.521" x2="105.644" y2="384.365" gradientUnits="userSpaceOnUse">
<stop stop-color="#E6612E"/>
<stop offset="1" stop-color="#803CC5"/>
</linearGradient>
<linearGradient id="paint6_linear_3013_135" x1="219.015" y1="89.6875" x2="219.015" y2="157.281" gradientUnits="userSpaceOnUse">
<stop stop-color="#E6612E"/>
<stop offset="1" stop-color="#803CC5"/>
</linearGradient>
<linearGradient id="paint7_linear_3013_135" x1="340.062" y1="285.875" x2="340.062" y2="369" gradientUnits="userSpaceOnUse">
<stop stop-color="#E6612E"/>
<stop offset="1" stop-color="#803CC5"/>
</linearGradient>
<linearGradient id="paint8_linear_3013_135" x1="196.969" y1="203.614" x2="196.969" y2="219.633" gradientUnits="userSpaceOnUse">
<stop stop-color="#E6612E"/>
<stop offset="1" stop-color="#803CC5"/>
</linearGradient>
<linearGradient id="paint9_linear_3013_135" x1="188.711" y1="250.479" x2="188.711" y2="266.659" gradientUnits="userSpaceOnUse">
<stop stop-color="#E6612E"/>
<stop offset="1" stop-color="#803CC5"/>
</linearGradient>
<linearGradient id="paint10_linear_3013_135" x1="109.211" y1="297.47" x2="109.211" y2="313.669" gradientUnits="userSpaceOnUse">
<stop stop-color="#E6612E"/>
<stop offset="1" stop-color="#803CC5"/>
</linearGradient>
<linearGradient id="paint11_linear_3013_135" x1="109.306" y1="250.47" x2="109.306" y2="266.669" gradientUnits="userSpaceOnUse">
<stop stop-color="#E6612E"/>
<stop offset="1" stop-color="#803CC5"/>
</linearGradient>
<linearGradient id="paint12_linear_3013_135" x1="109.175" y1="203.583" x2="109.175" y2="219.669" gradientUnits="userSpaceOnUse">
<stop stop-color="#E6612E"/>
<stop offset="1" stop-color="#803CC5"/>
</linearGradient>
<linearGradient id="paint13_linear_3013_135" x1="180.974" y1="297.356" x2="180.974" y2="313.643" gradientUnits="userSpaceOnUse">
<stop stop-color="#E6612E"/>
<stop offset="1" stop-color="#803CC5"/>
</linearGradient>
</defs>
</svg>
