<svg width="512" height="512" viewBox="0 0 512 512" fill="none" xmlns="http://www.w3.org/2000/svg">
<g clip-path="url(#clip0_2945_1838)">
<path d="M146.478 -0.148234C147.862 -0.159546 147.862 -0.159546 149.275 -0.171087C150.798 -0.175926 150.798 -0.175926 152.352 -0.180863C153.969 -0.19167 153.969 -0.19167 155.618 -0.202695C159.247 -0.225508 162.877 -0.241016 166.506 -0.256394C169.101 -0.270839 171.696 -0.285596 174.291 -0.300645C197.988 -0.432935 221.685 -0.497022 245.382 -0.548488C248.553 -0.555496 251.724 -0.562623 254.895 -0.569871C255.684 -0.571666 256.472 -0.573461 257.284 -0.575311C270.045 -0.605362 282.806 -0.670117 295.567 -0.748557C308.673 -0.82845 321.779 -0.874179 334.886 -0.887513C342.243 -0.895913 349.599 -0.919595 356.956 -0.982182C363.879 -1.04105 370.802 -1.0541 377.726 -1.03631C380.264 -1.03719 382.803 -1.05345 385.342 -1.08635C406.924 -1.35155 406.924 -1.35155 412.984 3.97035C414.366 5.6107 415.706 7.28802 416.998 8.99995C418.55 10.5522 420.124 12.0829 421.718 13.5927C423.361 15.2297 425.001 16.8693 426.639 18.5112C427.544 19.4148 428.449 20.3183 429.382 21.2493C431.832 23.6949 434.279 26.1436 436.726 28.5931C439.298 31.1677 441.872 33.7397 444.446 36.3122C448.758 40.6224 453.068 44.9346 457.377 49.248C462.355 54.2323 467.338 59.2129 472.322 64.1917C476.615 68.4805 480.907 72.7713 485.197 77.0637C487.753 79.6217 490.31 82.179 492.869 84.7346C495.713 87.5753 498.553 90.42 501.393 93.2651C502.239 94.1098 503.086 94.9545 503.958 95.8248C504.729 96.5984 505.5 97.372 506.294 98.1691C506.965 98.8405 507.636 99.5118 508.328 100.204C511.861 104.003 512.25 106.284 512.258 111.354C512.262 112.004 512.266 112.655 512.27 113.325C512.28 115.52 512.276 117.715 512.272 119.91C512.277 121.493 512.282 123.077 512.288 124.66C512.302 129.024 512.304 133.387 512.304 137.751C512.305 142.452 512.318 147.154 512.33 151.855C512.353 162.143 512.361 172.43 512.366 182.718C512.369 189.14 512.375 195.563 512.383 201.985C512.402 219.764 512.419 237.543 512.422 255.322C512.422 256.46 512.422 257.598 512.422 258.771C512.422 261.079 512.423 263.387 512.423 265.695C512.423 266.841 512.424 267.986 512.424 269.167C512.424 270.887 512.424 270.887 512.424 272.643C512.428 291.224 512.455 309.805 512.492 328.386C512.53 347.458 512.55 366.531 512.55 385.603C512.551 396.314 512.559 407.024 512.588 417.734C512.612 426.856 512.62 435.977 512.605 445.099C512.598 449.752 512.598 454.405 512.621 459.059C512.642 463.322 512.639 467.585 512.618 471.848C512.615 473.387 512.62 474.926 512.634 476.466C512.712 485.399 511.975 492.353 506.998 500C506.441 500.907 505.884 501.815 505.311 502.75C499.382 508.519 492.49 512.119 484.222 512.137C483.01 512.142 481.798 512.147 480.549 512.152C479.197 512.153 477.845 512.153 476.493 512.154C475.062 512.158 473.631 512.162 472.201 512.167C468.259 512.179 464.317 512.185 460.376 512.189C456.128 512.195 451.88 512.207 447.633 512.218C437.369 512.242 427.105 512.257 416.842 512.27C413.943 512.273 411.044 512.277 408.146 512.281C390.147 512.307 372.148 512.329 354.149 512.341C349.979 512.344 345.809 512.347 341.64 512.35C340.603 512.351 339.567 512.352 338.499 512.352C321.712 512.365 304.926 512.398 288.139 512.44C270.906 512.482 253.673 512.506 236.441 512.511C226.764 512.514 217.088 512.526 207.412 512.559C199.17 512.587 190.929 512.598 182.688 512.587C178.484 512.582 174.28 512.585 170.076 512.609C166.224 512.632 162.372 512.631 158.519 512.612C157.13 512.609 155.74 512.615 154.35 512.63C145.639 512.718 139.405 511.699 131.998 507C131.091 506.443 130.183 505.886 129.248 505.312C122.503 498.38 119.844 491.152 119.878 481.667C119.877 480.807 119.876 479.947 119.875 479.06C119.874 476.168 119.879 473.275 119.885 470.382C119.885 468.313 119.885 466.243 119.884 464.174C119.884 458.546 119.89 452.918 119.897 447.291C119.903 441.413 119.904 435.535 119.905 429.658C119.908 418.523 119.916 407.388 119.926 396.254C119.937 383.579 119.943 370.904 119.948 358.23C119.958 332.153 119.976 306.077 119.998 280C119.313 280.006 118.629 280.012 117.923 280.019C114.783 280.044 111.642 280.059 108.502 280.074C107.425 280.084 106.348 280.094 105.238 280.104C96.754 280.135 89.1976 279.309 80.9982 277C79.7955 276.671 78.5928 276.343 77.3536 276.004C62.5371 271.52 49.5078 264.362 37.9982 254C37.1835 253.339 36.3688 252.677 35.5294 251.996C19.3002 238.463 8.61024 219.131 2.99817 199C2.67848 197.913 2.35879 196.827 2.02942 195.707C-2.23544 178.549 -1.98345 157.962 2.99817 141C3.32688 139.802 3.65559 138.605 3.99426 137.371C8.46132 122.548 15.6364 109.509 25.9982 98C26.6595 97.1853 27.3207 96.3706 28.0021 95.5312C41.5242 79.3149 60.8708 68.5873 80.9982 63C82.1313 62.6803 83.2643 62.3606 84.4318 62.0312C96.1596 59.2071 108.012 59.7096 119.998 60C119.972 58.9012 119.946 57.8024 119.919 56.6704C119.828 52.5518 119.771 48.4332 119.724 44.3139C119.699 42.539 119.665 40.7642 119.621 38.9897C119.173 20.2468 119.173 20.2468 124.998 12C125.555 11.0925 126.112 10.185 126.686 9.24995C132.052 4.02869 138.892 -0.10549 146.478 -0.148234ZM142.998 23C140.019 27.936 139.582 32.48 139.705 38.121C139.709 38.8658 139.714 39.6106 139.718 40.3779C139.735 42.7315 139.772 45.0841 139.811 47.4375C139.826 49.0436 139.839 50.6497 139.852 52.2558C139.885 56.1709 139.936 60.0853 139.998 64C141.072 64.3781 142.147 64.7563 143.253 65.146C157.217 70.0926 169.804 76.1022 180.998 86C182.354 87.1408 182.354 87.1408 183.736 88.3046C202.769 104.784 216.721 130.697 218.998 156C219.618 170.437 220.108 185.03 215.998 199C215.658 200.221 215.318 201.441 214.967 202.699C206.638 230.077 187.7 253.327 162.498 266.875C161.859 267.22 161.221 267.565 160.562 267.92C156.082 270.215 151.455 271.962 146.711 273.629C146.064 273.858 145.417 274.088 144.75 274.324C143.167 274.884 141.583 275.442 139.998 276C139.928 302.738 139.875 329.476 139.843 356.214C139.827 368.629 139.806 381.044 139.772 393.459C139.742 404.28 139.723 415.1 139.716 425.921C139.712 431.65 139.703 437.38 139.681 443.109C139.661 448.503 139.654 453.896 139.659 459.29C139.658 461.268 139.652 463.247 139.641 465.226C139.626 467.93 139.629 470.634 139.637 473.338C139.629 474.119 139.62 474.9 139.611 475.705C139.653 480.85 140.294 484.558 142.998 489C149.169 493.143 156.193 492.419 163.397 492.381C164.767 492.384 166.138 492.389 167.508 492.395C171.264 492.408 175.02 492.401 178.776 492.392C182.831 492.385 186.885 492.396 190.94 492.404C198.879 492.417 206.818 492.415 214.757 492.406C221.209 492.399 227.662 492.398 234.114 492.401C235.033 492.402 235.951 492.402 236.897 492.403C238.763 492.404 240.629 492.405 242.495 492.406C259.989 492.414 277.484 492.404 294.979 492.388C309.989 492.375 324.999 492.377 340.009 492.391C357.441 492.407 374.873 492.413 392.305 492.404C394.164 492.403 396.023 492.402 397.882 492.401C399.254 492.401 399.254 492.401 400.654 492.4C407.098 492.397 413.543 492.402 419.987 492.409C427.841 492.417 435.695 492.415 443.549 492.399C447.556 492.391 451.562 492.388 455.569 492.398C459.238 492.407 462.907 492.402 466.576 492.386C468.53 492.381 470.484 492.391 472.438 492.401C481.191 492.431 481.191 492.431 488.998 489C493.39 482.633 492.407 474.87 492.359 467.415C492.36 465.916 492.363 464.417 492.367 462.918C492.373 458.806 492.361 454.695 492.346 450.583C492.333 446.146 492.338 441.709 492.34 437.272C492.342 429.588 492.332 421.903 492.315 414.219C492.291 403.108 492.283 391.998 492.279 380.888C492.273 362.861 492.253 344.835 492.224 326.809C492.197 309.299 492.176 291.789 492.163 274.279C492.162 273.199 492.161 272.12 492.161 271.007C492.157 265.592 492.153 260.177 492.149 254.761C492.118 209.841 492.065 164.92 491.998 120C490.815 119.99 489.631 119.979 488.412 119.969C477.273 119.871 466.133 119.768 454.994 119.661C449.267 119.605 443.54 119.552 437.813 119.503C432.289 119.455 426.764 119.403 421.24 119.347C419.13 119.327 417.019 119.308 414.909 119.291C411.959 119.267 409.009 119.237 406.059 119.205C405.182 119.2 404.304 119.194 403.4 119.188C400.027 119.147 397.22 119.074 393.998 118C392.662 113.992 392.82 110.119 392.793 105.939C392.783 105.012 392.773 104.085 392.763 103.13C392.731 100.062 392.706 96.9937 392.682 93.9257C392.661 91.8001 392.64 89.6745 392.619 87.5488C392.564 81.9511 392.514 76.3534 392.466 70.7556C392.416 65.0447 392.36 59.3338 392.305 53.623C392.197 42.4154 392.096 31.2077 391.998 20C361.288 19.9315 330.578 19.8784 299.868 19.8468C296.241 19.843 292.615 19.8391 288.989 19.8352C288.267 19.8344 287.545 19.8336 286.802 19.8328C275.115 19.8197 263.428 19.7961 251.741 19.7685C239.748 19.7404 227.756 19.7238 215.763 19.7177C209.027 19.7139 202.291 19.7049 195.556 19.6828C189.217 19.6624 182.878 19.6561 176.539 19.6606C174.212 19.6598 171.885 19.6538 169.557 19.6423C166.381 19.6274 163.204 19.631 160.027 19.6392C158.645 19.6261 158.645 19.6261 157.236 19.6127C151.743 19.651 147.826 20.2965 142.998 23ZM411.998 36C411.998 57.12 411.998 78.24 411.998 100C433.118 100 454.238 100 475.998 100C472.123 95.4786 468.301 91.1564 464.1 86.9729C463.545 86.4159 462.99 85.8589 462.418 85.285C460.607 83.4701 458.793 81.6587 456.979 79.8476C455.711 78.5798 454.445 77.3119 453.178 76.0438C450.536 73.4005 447.892 70.759 445.247 68.1189C441.85 64.727 438.457 61.3306 435.065 57.9329C432.456 55.3207 429.845 52.7109 427.234 50.1018C425.981 48.8493 424.728 47.5961 423.477 46.3422C421.736 44.5994 419.993 42.8599 418.249 41.1213C417.469 40.3383 417.469 40.3383 416.673 39.5395C414.677 37.0831 414.677 37.0831 411.998 36ZM119.998 81C119.998 107.07 119.998 133.14 119.998 160C146.068 160 172.138 160 198.998 160C193.946 133.054 182.774 111.056 159.869 95.227C148.576 87.8211 133.721 81 119.998 81ZM45.5568 107.355C27.094 126.438 20.4041 149.777 20.7208 175.793C21.4284 198.897 32.5079 220.079 48.9982 236C69.4523 254.08 92.8272 260.164 119.812 259.218C136.985 258.044 154.144 250.323 166.998 239C167.794 238.358 168.589 237.716 169.408 237.055C184.966 224.022 196.127 203.944 198.544 183.79C198.694 182.54 198.844 181.289 198.998 180C197.827 179.99 196.656 179.979 195.45 179.969C184.428 179.871 173.407 179.768 162.385 179.661C156.719 179.605 151.052 179.552 145.386 179.503C139.92 179.455 134.454 179.403 128.988 179.347C126.9 179.327 124.812 179.308 122.724 179.291C119.805 179.267 116.886 179.237 113.968 179.205C113.099 179.2 112.231 179.194 111.337 179.188C107.983 179.147 105.201 179.068 101.998 178C100.671 174.019 100.82 170.183 100.793 166.03C100.783 165.113 100.773 164.196 100.763 163.251C100.731 160.215 100.706 157.18 100.682 154.144C100.661 152.041 100.64 149.938 100.619 147.835C100.564 142.296 100.514 136.758 100.466 131.219C100.416 125.569 100.36 119.918 100.305 114.268C100.197 103.178 100.096 92.0892 99.9982 81C79.6281 81 59.7175 93.9757 45.5568 107.355Z" fill="url(#paint0_linear_2945_1838)"/>
<path d="M452.688 268.25C454.149 269.13 455.591 270.042 457.001 271C457.908 271.557 458.816 272.114 459.751 272.687C466.874 280.008 469.316 287.783 469.393 297.732C469.275 304.11 467.6 308.701 464.001 314C463.444 314.907 462.887 315.815 462.313 316.75C458.039 320.909 452.658 324.114 447.001 326C445.912 325.87 444.822 325.739 443.7 325.605C438.566 324.996 433.559 324.418 428.995 327.241C424.467 331.002 420.737 335.475 417.001 340C412.289 345.492 407.418 350.812 402.438 356.062C401.023 357.561 399.607 359.06 398.192 360.558C397.489 361.303 396.785 362.048 396.06 362.816C392.987 366.075 389.93 369.349 386.876 372.625C386.034 373.528 386.034 373.528 385.175 374.448C382.81 376.985 380.446 379.522 378.083 382.059C376.786 383.452 375.488 384.844 374.191 386.236C372.97 387.546 371.75 388.856 370.53 390.166C369.705 391.051 369.705 391.051 368.864 391.953C368.383 392.47 367.901 392.987 367.405 393.52C366.001 395 366.001 395 364.31 396.542C363.878 397.023 363.446 397.504 363.001 398C363.215 400.706 363.875 402.73 365.024 405.183C367.321 411.807 367.136 420.418 365.021 427.094C363.825 429.535 362.527 431.753 361.001 434C360.444 434.907 359.887 435.815 359.313 436.75C351.993 443.873 344.218 446.315 334.269 446.391C327.891 446.274 323.3 444.599 318.001 441C317.093 440.443 316.186 439.886 315.251 439.312C308.725 432.606 305.822 425.407 305.813 416.187C305.801 415.488 305.789 414.789 305.776 414.068C305.767 410.604 305.966 408.083 307.306 404.863C307.535 403.918 307.765 402.973 308.001 402C306.518 399.612 305.232 397.983 303.313 396C302.28 394.86 301.249 393.718 300.22 392.574C299.685 391.988 299.15 391.402 298.599 390.798C296.033 387.91 293.676 384.868 291.313 381.812C290.408 380.649 289.501 379.487 288.595 378.324C288.162 377.768 287.728 377.211 287.282 376.638C284.225 372.73 281.11 368.867 278.001 365C277.505 365.162 277.008 365.325 276.497 365.492C273.023 366.199 269.592 366.144 266.063 366.125C265.36 366.129 264.657 366.133 263.933 366.137C260.87 366.131 258.316 366.112 255.411 365.074C253.008 364.75 253.008 364.75 251.485 366.131C249.685 367.912 248.028 369.769 246.376 371.687C245.456 372.715 245.456 372.715 244.518 373.764C243.264 375.166 242.017 376.574 240.776 377.987C238.733 380.304 236.647 382.577 234.547 384.842C233.208 386.291 231.884 387.753 230.56 389.215C228.835 391.092 227.076 392.938 225.286 394.754C224.45 395.619 223.613 396.484 222.751 397.375C222.003 398.125 221.256 398.875 220.485 399.648C218.711 401.935 218.711 401.935 219.243 404.805C219.493 405.859 219.743 406.913 220.001 408C220.72 417.824 220.731 425.564 215.001 434C214.444 434.907 213.887 435.815 213.313 436.75C205.993 443.873 198.218 446.315 188.269 446.391C181.891 446.274 177.3 444.599 172.001 441C171.093 440.443 170.186 439.886 169.251 439.312C162.128 431.992 159.686 424.217 159.609 414.268C159.727 407.889 161.402 403.299 165.001 398C165.558 397.092 166.115 396.185 166.688 395.25C173.435 388.686 180.609 385.825 189.876 385.875C190.584 385.871 191.291 385.867 192.021 385.863C195.099 385.869 197.674 385.883 200.595 386.926C202.994 387.25 202.994 387.25 204.517 385.869C206.317 384.088 207.974 382.231 209.626 380.312C210.546 379.284 210.546 379.284 211.484 378.235C212.738 376.833 213.985 375.426 215.226 374.013C217.269 371.696 219.355 369.423 221.455 367.157C222.794 365.709 224.118 364.247 225.442 362.785C227.167 360.908 228.926 359.061 230.716 357.246C231.552 356.381 232.389 355.516 233.251 354.625C233.999 353.875 234.746 353.124 235.517 352.351C237.291 350.065 237.291 350.065 236.759 347.195C236.509 346.141 236.259 345.086 236.001 344C235.282 334.176 235.271 326.436 241.001 318C241.558 317.092 242.115 316.185 242.688 315.25C250.009 308.127 257.784 305.684 267.733 305.608C274.111 305.726 278.702 307.401 284.001 311C284.908 311.557 285.816 312.114 286.751 312.687C293.276 319.394 296.18 326.593 296.188 335.812C296.201 336.512 296.213 337.211 296.226 337.932C296.235 341.396 296.036 343.916 294.696 347.137C294.467 348.081 294.237 349.026 294.001 350C295.484 352.388 296.769 354.016 298.688 356C299.722 357.14 300.753 358.282 301.782 359.426C302.317 360.012 302.852 360.598 303.403 361.202C305.969 364.09 308.326 367.132 310.688 370.187C311.594 371.35 312.501 372.513 313.407 373.676C313.84 374.232 314.273 374.788 314.72 375.362C317.777 379.27 320.892 383.133 324.001 387C324.763 386.727 324.763 386.727 325.54 386.449C328.001 386 328.001 386 331.399 386.394C338.992 387.274 338.992 387.274 346.002 384.759C350.533 380.998 354.264 376.526 358.001 372C362.713 366.508 367.584 361.188 372.563 355.937C373.979 354.439 375.394 352.94 376.81 351.441C377.513 350.696 378.217 349.951 378.942 349.184C382.015 345.925 385.072 342.651 388.126 339.375C388.968 338.472 388.968 338.472 389.827 337.551C392.192 335.015 394.556 332.478 396.919 329.94C398.216 328.548 399.514 327.156 400.811 325.764C402.032 324.454 403.252 323.144 404.472 321.833C405.297 320.949 405.297 320.949 406.138 320.047C406.619 319.53 407.101 319.012 407.597 318.479C409.001 317 409.001 317 410.692 315.458C411.124 314.977 411.556 314.496 412.001 314C411.787 311.293 411.127 309.27 409.978 306.816C407.681 300.193 407.866 291.582 409.981 284.906C411.177 282.464 412.475 280.247 414.001 278C414.558 277.092 415.115 276.185 415.688 275.25C425.278 265.92 440.341 262.17 452.688 268.25ZM430.001 292C429.302 294.84 429.302 297.16 430.001 300C431.99 302.984 433.386 304.603 436.938 305.476C440.862 305.759 442.672 305.219 446.001 303C448.22 299.671 448.76 297.861 448.478 293.937C447.604 290.385 445.985 288.989 443.001 287C437.184 285.569 433.393 286.912 430.001 292ZM257.001 332C256.303 334.84 256.303 337.16 257.001 340C258.99 342.984 260.386 344.603 263.938 345.476C267.862 345.759 269.672 345.219 273.001 343C275.22 339.671 275.76 337.861 275.478 333.937C274.604 330.385 272.985 328.989 270.001 327C264.184 325.569 260.393 326.912 257.001 332ZM181.001 412C180.303 414.84 180.303 417.16 181.001 420C182.99 422.984 184.386 424.603 187.938 425.476C191.862 425.759 193.672 425.219 197.001 423C199.22 419.671 199.76 417.861 199.478 413.937C198.604 410.385 196.985 408.989 194.001 407C188.184 405.569 184.393 406.912 181.001 412ZM327.001 412C326.303 414.84 326.303 417.16 327.001 420C328.99 422.984 330.386 424.603 333.938 425.476C337.862 425.759 339.672 425.219 343.001 423C345.22 419.671 345.76 417.861 345.478 413.937C344.604 410.385 342.985 408.989 340.001 407C334.184 405.569 330.393 406.912 327.001 412Z" fill="url(#paint1_linear_2945_1838)"/>
<path d="M291.718 199.365C292.38 199.357 293.042 199.35 293.725 199.341C295.937 199.322 298.147 199.337 300.359 199.353C301.948 199.346 303.537 199.337 305.125 199.327C309.435 199.304 313.745 199.313 318.055 199.328C322.566 199.341 327.077 199.329 331.589 199.321C339.165 199.312 346.741 199.324 354.316 199.348C363.074 199.375 371.831 199.367 380.589 199.339C388.109 199.316 395.629 199.313 403.15 199.326C407.641 199.334 412.131 199.335 416.622 199.319C420.845 199.304 425.067 199.314 429.289 199.343C430.838 199.35 432.387 199.348 433.936 199.337C436.053 199.323 438.166 199.34 440.282 199.365C441.466 199.367 442.649 199.369 443.869 199.371C447.928 200.187 449.428 201.828 452 205C452.664 207.5 452.664 207.5 452.625 210C452.638 210.825 452.651 211.65 452.664 212.5C451.696 216.143 449.878 217.617 447 220C443.869 220.629 443.869 220.629 440.282 220.635C439.62 220.643 438.958 220.651 438.275 220.659C436.063 220.678 433.853 220.663 431.641 220.647C430.052 220.654 428.463 220.663 426.875 220.674C422.565 220.696 418.255 220.688 413.945 220.672C409.434 220.659 404.923 220.671 400.411 220.679C392.835 220.688 385.259 220.676 377.684 220.652C368.926 220.625 360.169 220.633 351.411 220.661C343.891 220.684 336.371 220.687 328.85 220.674C324.359 220.666 319.869 220.665 315.378 220.682C311.155 220.696 306.933 220.686 302.711 220.657C301.162 220.65 299.613 220.652 298.064 220.663C295.947 220.677 293.834 220.66 291.718 220.635C290.534 220.633 289.351 220.631 288.131 220.629C284.072 219.814 282.572 218.173 280 215C279.336 212.5 279.336 212.5 279.375 210C279.362 209.175 279.349 208.35 279.336 207.5C281.039 201.088 285.598 199.375 291.718 199.365Z" fill="url(#paint2_linear_2945_1838)"/>
<path d="M291.718 159.365C292.38 159.357 293.042 159.35 293.725 159.341C295.937 159.322 298.147 159.337 300.359 159.353C301.948 159.346 303.537 159.337 305.125 159.327C309.435 159.304 313.745 159.313 318.055 159.328C322.566 159.341 327.077 159.329 331.589 159.321C339.165 159.312 346.741 159.324 354.316 159.348C363.074 159.375 371.831 159.367 380.589 159.339C388.109 159.316 395.629 159.313 403.15 159.326C407.641 159.334 412.131 159.335 416.622 159.319C420.845 159.304 425.067 159.314 429.289 159.343C430.838 159.35 432.387 159.348 433.936 159.337C436.053 159.323 438.166 159.34 440.282 159.365C441.466 159.367 442.649 159.369 443.869 159.371C447.928 160.187 449.428 161.828 452 165C452.664 167.5 452.664 167.5 452.625 170C452.638 170.825 452.651 171.65 452.664 172.5C451.696 176.143 449.878 177.617 447 180C443.869 180.629 443.869 180.629 440.282 180.635C439.62 180.643 438.958 180.651 438.275 180.659C436.063 180.678 433.853 180.663 431.641 180.647C430.052 180.654 428.463 180.663 426.875 180.674C422.565 180.696 418.255 180.688 413.945 180.672C409.434 180.659 404.923 180.671 400.411 180.679C392.835 180.688 385.259 180.676 377.684 180.652C368.926 180.625 360.169 180.633 351.411 180.661C343.891 180.684 336.371 180.687 328.85 180.674C324.359 180.666 319.869 180.665 315.378 180.682C311.155 180.696 306.933 180.686 302.711 180.657C301.162 180.65 299.613 180.652 298.064 180.663C295.947 180.677 293.834 180.66 291.718 180.635C290.534 180.633 289.351 180.631 288.131 180.629C284.072 179.814 282.572 178.173 280 175C279.336 172.5 279.336 172.5 279.375 170C279.362 169.175 279.349 168.35 279.336 167.5C281.039 161.088 285.598 159.375 291.718 159.365Z" fill="url(#paint3_linear_2945_1838)"/>
<path d="M262.137 99.3529C263.261 99.3442 264.385 99.3354 265.543 99.3264C269.258 99.3044 272.972 99.3189 276.688 99.3358C279.269 99.3325 281.851 99.3276 284.432 99.3213C289.843 99.314 295.253 99.3242 300.663 99.3481C306.912 99.3753 313.161 99.3664 319.41 99.3389C325.429 99.3135 331.448 99.3162 337.467 99.3308C340.025 99.3342 342.583 99.3301 345.141 99.3184C348.716 99.3057 352.289 99.3251 355.863 99.3529C356.922 99.3428 357.981 99.3327 359.072 99.3223C366.24 99.4259 366.24 99.4259 370.155 102.384C372.152 105.216 372.679 106.571 372.625 110C372.644 111.237 372.644 111.237 372.664 112.5C371.651 116.312 370.156 117.615 367 120C363.293 120.751 359.635 120.683 355.863 120.647C354.739 120.656 353.615 120.664 352.457 120.673C348.742 120.695 345.028 120.681 341.312 120.664C338.731 120.667 336.149 120.672 333.568 120.678C328.157 120.686 322.747 120.676 317.337 120.652C311.088 120.625 304.839 120.633 298.59 120.661C292.571 120.686 286.552 120.684 280.533 120.669C277.975 120.666 275.417 120.67 272.859 120.681C269.284 120.694 265.711 120.675 262.137 120.647C261.078 120.657 260.019 120.667 258.928 120.678C251.76 120.574 251.76 120.574 247.845 117.616C245.848 114.784 245.321 113.428 245.375 110C245.362 109.175 245.349 108.35 245.336 107.5C247.63 98.8639 254.725 99.2821 262.137 99.3529Z" fill="url(#paint4_linear_2945_1838)"/>
<path d="M262.137 59.3529C263.261 59.3442 264.385 59.3354 265.543 59.3264C269.258 59.3044 272.972 59.3189 276.688 59.3358C279.269 59.3325 281.851 59.3276 284.432 59.3213C289.843 59.314 295.253 59.3242 300.663 59.3481C306.912 59.3753 313.161 59.3664 319.41 59.3389C325.429 59.3135 331.448 59.3162 337.467 59.3308C340.025 59.3342 342.583 59.3301 345.141 59.3184C348.716 59.3057 352.289 59.3251 355.863 59.3529C356.922 59.3428 357.981 59.3327 359.072 59.3223C366.24 59.4259 366.24 59.4259 370.155 62.3841C372.152 65.2159 372.679 66.5714 372.625 69.9999C372.644 71.2374 372.644 71.2374 372.664 72.4999C371.651 76.3124 370.156 77.6149 367 79.9999C363.293 80.7513 359.635 80.6829 355.863 80.6469C354.739 80.6556 353.615 80.6644 352.457 80.6734C348.742 80.6954 345.028 80.6809 341.312 80.664C338.731 80.6673 336.149 80.6722 333.568 80.6785C328.157 80.6858 322.747 80.6756 317.337 80.6518C311.088 80.6246 304.839 80.6334 298.59 80.6609C292.571 80.6863 286.552 80.6836 280.533 80.669C277.975 80.6656 275.417 80.6697 272.859 80.6814C269.284 80.6941 265.711 80.6747 262.137 80.6469C261.078 80.657 260.019 80.6671 258.928 80.6775C251.76 80.574 251.76 80.574 247.845 77.6157C245.848 74.7839 245.321 73.4284 245.375 69.9999C245.362 69.1749 245.349 68.3499 245.336 67.4999C247.63 58.8639 254.725 59.2821 262.137 59.3529Z" fill="url(#paint5_linear_2945_1838)"/>
<path d="M49.9998 159.375C50.8248 159.362 51.6498 159.349 52.4998 159.336C56.1865 160.315 57.6807 162.013 59.9998 165C60.7498 168.312 60.7498 168.312 60.9998 172C61.9183 181.768 64.8371 191.206 70.9998 199C71.4909 199.633 71.982 200.266 72.488 200.918C80.9509 211.287 92.7326 217.29 106.015 218.81C107.903 218.991 109.795 219.122 111.687 219.25C115.87 220.197 117.416 221.619 120 225C120.664 227.5 120.664 227.5 120.625 230C120.644 231.238 120.644 231.238 120.664 232.5C119.676 236.22 118.049 237.695 115 240C112.163 240.522 110.069 240.718 107.25 240.625C106.509 240.61 105.768 240.596 105.005 240.58C86.8926 239.799 71.703 231.66 58.9998 219C58.2895 218.313 57.5792 217.626 56.8474 216.918C45.6166 205.299 39.8064 188.922 39.4373 172.938C39.4103 172.223 39.3833 171.508 39.3555 170.772C39.3841 166.944 39.9047 165.126 42.2224 162.043C45.1596 159.882 46.4136 159.319 49.9998 159.375Z" fill="url(#paint6_linear_2945_1838)"/>
<path d="M255.001 200C258.126 201.875 258.126 201.875 260.001 205C260.99 210.026 260.778 213.705 258.126 218.125C253.706 220.777 250.027 220.989 245.001 220C241.876 218.125 241.876 218.125 240.001 215C239.012 209.974 239.224 206.295 241.876 201.875C246.296 199.223 249.975 199.011 255.001 200Z" fill="url(#paint7_linear_2945_1838)"/>
<path d="M255.001 160C258.126 161.875 258.126 161.875 260.001 165C260.99 170.026 260.778 173.705 258.126 178.125C253.706 180.777 250.027 180.989 245.001 180C241.876 178.125 241.876 178.125 240.001 175C239.012 169.974 239.224 166.295 241.876 161.875C246.296 159.223 249.975 159.011 255.001 160Z" fill="url(#paint8_linear_2945_1838)"/>
</g>
<defs>
<linearGradient id="paint0_linear_2945_1838" x1="255.835" y1="-1.17432" x2="255.835" y2="512.635" gradientUnits="userSpaceOnUse">
<stop stop-color="#E6612E"/>
<stop offset="1" stop-color="#803CC5"/>
</linearGradient>
<linearGradient id="paint1_linear_2945_1838" x1="314.501" y1="265.289" x2="314.501" y2="446.391" gradientUnits="userSpaceOnUse">
<stop stop-color="#E6612E"/>
<stop offset="1" stop-color="#803CC5"/>
</linearGradient>
<linearGradient id="paint2_linear_2945_1838" x1="366" y1="199.312" x2="366" y2="220.688" gradientUnits="userSpaceOnUse">
<stop stop-color="#E6612E"/>
<stop offset="1" stop-color="#803CC5"/>
</linearGradient>
<linearGradient id="paint3_linear_2945_1838" x1="366" y1="159.312" x2="366" y2="180.688" gradientUnits="userSpaceOnUse">
<stop stop-color="#E6612E"/>
<stop offset="1" stop-color="#803CC5"/>
</linearGradient>
<linearGradient id="paint4_linear_2945_1838" x1="309" y1="99.3145" x2="309" y2="120.685" gradientUnits="userSpaceOnUse">
<stop stop-color="#E6612E"/>
<stop offset="1" stop-color="#803CC5"/>
</linearGradient>
<linearGradient id="paint5_linear_2945_1838" x1="309" y1="59.3145" x2="309" y2="80.6854" gradientUnits="userSpaceOnUse">
<stop stop-color="#E6612E"/>
<stop offset="1" stop-color="#803CC5"/>
</linearGradient>
<linearGradient id="paint6_linear_2945_1838" x1="80.0096" y1="159.336" x2="80.0096" y2="240.647" gradientUnits="userSpaceOnUse">
<stop stop-color="#E6612E"/>
<stop offset="1" stop-color="#803CC5"/>
</linearGradient>
<linearGradient id="paint7_linear_2945_1838" x1="250.001" y1="199.456" x2="250.001" y2="220.544" gradientUnits="userSpaceOnUse">
<stop stop-color="#E6612E"/>
<stop offset="1" stop-color="#803CC5"/>
</linearGradient>
<linearGradient id="paint8_linear_2945_1838" x1="250.001" y1="159.456" x2="250.001" y2="180.544" gradientUnits="userSpaceOnUse">
<stop stop-color="#E6612E"/>
<stop offset="1" stop-color="#803CC5"/>
</linearGradient>
<clipPath id="clip0_2945_1838">
<rect width="512" height="512" fill="white"/>
</clipPath>
</defs>
</svg>
