<svg width="512" height="512" viewBox="0 0 512 512" fill="none" xmlns="http://www.w3.org/2000/svg">
<path d="M340.115 30.7422C355.77 45.2101 365.399 67.7546 366.447 88.8086C366.8 102.352 365.855 114.995 362.001 128C362.933 128.721 363.865 129.441 364.826 130.184C367.64 132.531 369.26 134.701 370.814 138.062C371.212 138.899 371.61 139.736 372.021 140.598C375.612 149.397 374.537 158.25 371.337 167.02C369.513 171.089 367.228 174.707 364.732 178.395C362.693 181.464 360.998 184.645 359.337 187.93C358.001 190 358.001 190 355.693 192.137C352.073 195.988 349.977 200.266 347.564 204.937C338.251 222.47 327.191 238.906 316.108 255.356C311.113 262.777 311.411 272.277 313.001 281C315.198 286.492 318.967 290.76 323.001 295C323.78 295.879 324.558 296.758 325.361 297.664C328.501 300.442 331.689 301.926 335.564 303.375C336.33 303.669 337.097 303.963 337.887 304.266C345.039 306.882 352.352 308.669 359.751 310.438C391.736 318.114 430.075 333.08 449.548 361.586C470.501 396.394 472.18 435.743 474.751 475.375C474.822 476.444 474.893 477.512 474.967 478.613C475.169 481.687 475.36 484.761 475.548 487.836C475.64 489.219 475.64 489.219 475.734 490.629C476.297 500.296 476.297 500.296 475.001 505C470.985 508.195 467.721 508.377 462.685 508.383C461.954 508.388 461.224 508.393 460.472 508.398C458.017 508.411 455.564 508.403 453.109 508.394C451.335 508.399 449.56 508.405 447.786 508.413C442.904 508.429 438.023 508.427 433.141 508.421C427.878 508.419 422.616 508.433 417.353 508.446C407.042 508.467 396.73 508.471 386.419 508.469C378.04 508.468 369.662 508.472 361.283 508.479C358.872 508.481 356.461 508.484 354.05 508.486C352.85 508.487 351.65 508.488 350.414 508.489C327.709 508.508 305.004 508.507 282.299 508.5C261.512 508.494 240.726 508.515 219.94 508.548C198.611 508.582 177.282 508.597 155.953 508.592C143.972 508.59 131.992 508.596 120.011 508.62C109.814 508.641 99.616 508.645 89.4182 508.626C84.2125 508.617 79.0071 508.616 73.8014 508.636C69.0394 508.655 64.278 508.651 59.516 508.628C57.7899 508.624 56.0639 508.628 54.3379 508.641C51.9972 508.659 49.6586 508.645 47.318 508.624C45.3656 508.624 45.3656 508.624 43.3737 508.624C39.1379 507.84 37.654 506.321 35.0013 503C34.4795 500.81 34.4795 500.81 34.6292 498.551C34.6748 497.677 34.7203 496.803 34.7673 495.903C34.8831 494.466 34.8831 494.466 35.0013 493C35.0627 491.966 35.1241 490.931 35.1874 489.866C35.4096 486.304 35.677 482.749 35.9544 479.191C36.057 477.858 36.1595 476.524 36.262 475.191C36.4777 472.398 36.6968 469.605 36.9178 466.812C37.1391 464.01 37.3542 461.207 37.5633 458.404C38.6433 443.94 39.8854 429.543 41.9896 415.184C42.1449 414.118 42.3003 413.052 42.4604 411.954C44.6399 397.889 48.23 383.601 55.0013 371C55.4782 370.055 55.9552 369.11 56.4466 368.137C61.0687 359.529 67.1524 352.854 74.0013 346C74.6961 345.282 75.3909 344.564 76.1067 343.824C97.4865 323.213 129.076 312.747 157.501 306.938C171.778 303.88 184.168 300.654 193.241 288.378C198.781 279.558 199.341 269.9 197.709 259.781C195.929 252.786 191.491 247.768 186.91 242.374C183.138 237.683 179.929 232.59 176.626 227.562C175.961 226.567 175.296 225.572 174.611 224.547C162.739 206.739 162.739 206.739 160.837 198.031C159.736 195.356 158.566 195.222 156.001 194C152.471 190.161 150.013 185.785 147.501 181.25C147.106 180.541 146.711 179.833 146.304 179.103C139.933 167.559 135.618 157.349 138.72 143.879C141.16 136.627 141.16 136.627 144.783 133.926C147.267 131.282 147.267 131.282 146.936 128.521C146.352 125.369 145.612 122.292 144.814 119.187C139.88 97.5858 140.592 73.5591 152.251 54C158.282 45.3199 165.89 38.9549 176.286 36.4492C182.652 34.8442 185.014 31.8891 188.865 26.6914C200.115 12.5209 218.491 6.06165 235.841 3.41405C271.158 -0.599167 312.481 7.96148 340.115 30.7422ZM201.872 36.9297C198.956 40.1562 196.907 43.835 194.837 47.6445C191.611 51.784 187.078 52.0682 182.126 52.75C175.083 54.1268 170.24 57.8151 166.189 63.6875C157.919 78.2776 158.536 98.1561 162.001 114C164.203 121.621 166.642 129.324 171.001 136C171.837 134.917 171.837 134.917 172.689 133.812C175.001 131 175.001 131 177.689 128.625C180.667 125.244 180.856 123.49 181.001 119C180.805 117.228 180.596 115.457 180.376 113.687C179.696 107.076 180.668 101.406 184.47 95.8555C189.182 90.1851 189.182 90.1851 193.689 89.7266C203.119 89.4374 208.586 91.5363 216.408 96.5391C241.96 112.397 276.39 122.754 306.501 116.812C314.921 114.695 322.696 111.801 329.751 106.687C334.086 103.63 336.756 103.186 342.001 104C343.74 105.258 343.74 105.258 345.001 107C345.146 109.121 345.146 109.121 344.814 111.437C344.717 112.199 344.62 112.961 344.521 113.746C344.001 116 344.001 116 342.958 117.988C341.81 120.402 341.798 122.094 341.876 124.75C341.894 125.549 341.912 126.348 341.931 127.172C341.954 127.775 341.977 128.378 342.001 129C344.21 125.686 345.345 122.372 346.564 118.625C346.895 117.635 346.895 117.635 347.234 116.625C353.079 98.8956 350.086 79.6117 342.001 63C329.652 42.3148 312.924 32.0192 290.001 26C260.179 18.6935 226.569 14.7674 201.872 36.9297ZM197.001 104C195.356 105.646 195.853 107.582 195.825 109.848C195.802 110.846 195.778 111.844 195.753 112.873C195.711 114.972 195.679 117.071 195.659 119.17C195.437 127.267 193.952 133.149 188.189 139C179.424 148.569 176.738 162.38 176.596 174.812C176.575 176.213 176.541 177.614 176.494 179.015C176.16 189.008 177.532 196.367 183.001 205C183.441 205.711 183.88 206.421 184.333 207.154C185.548 209.038 186.819 210.865 188.126 212.687C188.829 213.69 188.829 213.69 189.547 214.712C191.024 216.813 192.512 218.907 194.001 221C194.964 222.365 195.927 223.731 196.888 225.098C198.859 227.896 200.835 230.691 202.814 233.484C205.099 236.714 207.367 239.955 209.626 243.203C210.24 244.085 210.854 244.966 211.486 245.874C212.666 247.569 213.843 249.264 215.018 250.962C224.373 265.358 224.373 265.358 239.001 273C241.836 273.284 244.65 273.327 247.497 273.336C248.29 273.343 249.082 273.349 249.898 273.356C251.565 273.366 253.231 273.371 254.898 273.371C257.429 273.375 259.957 273.411 262.488 273.449C264.116 273.455 265.744 273.459 267.372 273.461C268.491 273.482 268.491 273.482 269.633 273.504C276.107 273.449 281.147 271.345 286.146 267.238C290.888 261.763 294.789 255.892 298.653 249.784C301.952 244.573 305.409 239.513 309.001 234.5C325.961 210.676 338.793 190.324 335.001 160C333.328 151.29 330.146 142.903 326.941 134.662C326.041 132.113 325.46 129.661 325.001 127C323.984 127.29 323.984 127.29 322.947 127.586C280.656 139.418 241.733 127.763 204.179 107.11C201.836 105.916 199.455 104.942 197.001 104ZM354.001 147C353.662 148.874 353.33 150.749 353.001 152.625C352.816 153.669 352.63 154.713 352.439 155.789C352.014 158.906 351.926 161.859 352.001 165C355.264 162.182 356.823 159.312 357.158 154.969C357.262 150.851 357.262 150.851 356.001 147C355.341 147 354.681 147 354.001 147ZM155.001 148C153.295 153.404 154.826 156.927 156.896 161.926C157.826 164.154 157.826 164.154 160.001 165C160.347 158.666 159.295 153.897 157.001 148C156.341 148 155.681 148 155.001 148ZM219.001 285C223.803 298.886 238.839 316.589 252.001 323C258.071 323.773 262.388 320.196 267.033 316.629C276.27 308.448 283.507 298.43 290.001 288C289.506 287.01 289.506 287.01 289.001 286C288.527 286.284 288.053 286.567 287.565 286.86C278.961 291.158 269.916 290.569 260.534 290.467C257.64 290.438 254.747 290.446 251.853 290.459C240.14 290.446 229.94 289.496 219.001 285ZM204.221 299.531C201.955 301.951 200.373 303.972 199.001 307C199.469 311.569 201.331 315.332 203.314 319.438C203.789 320.505 204.264 321.573 204.753 322.674C205.692 324.782 206.648 326.883 207.621 328.976C209.574 333.255 211.305 337.613 213.001 342C216.477 341.42 219.292 340.535 222.427 338.934C223.223 338.531 224.019 338.128 224.839 337.713C225.656 337.292 226.472 336.871 227.314 336.438C228.15 336.013 228.986 335.588 229.847 335.15C231.901 334.106 233.952 333.055 236.001 332C233.31 329.227 230.607 326.655 227.607 324.219C223.542 320.776 220.473 316.765 217.314 312.5C216.759 311.767 216.204 311.033 215.632 310.277C213.215 307.065 210.863 303.838 208.669 300.469C207.844 299.247 207.844 299.247 207.001 298C205.736 297.891 205.736 297.891 204.221 299.531ZM303.001 298C301.471 300.033 300.042 302.076 298.626 304.188C294.184 310.626 289.26 316.319 283.861 321.965C280.772 325.195 277.88 328.583 275.001 332C278.074 333.707 281.161 335.387 284.251 337.062C285.124 337.548 285.997 338.033 286.896 338.533C287.74 338.988 288.584 339.442 289.454 339.91C290.229 340.334 291.005 340.759 291.803 341.196C293.937 342.107 293.937 342.107 296.081 342.065C299.215 340.326 300.022 337.235 301.271 334.043C301.556 333.344 301.841 332.644 302.135 331.924C302.735 330.443 303.327 328.959 303.912 327.472C304.809 325.199 305.734 322.938 306.663 320.678C307.243 319.238 307.82 317.797 308.396 316.355C308.673 315.679 308.95 315.003 309.235 314.306C310.275 311.63 311.064 309.548 310.734 306.66C309.86 304.68 308.829 303.007 307.564 301.25C307.132 300.636 306.7 300.023 306.255 299.391C305.841 298.932 305.428 298.473 305.001 298C304.341 298 303.681 298 303.001 298ZM325.001 317C324.616 317.941 324.231 318.881 323.834 319.85C322.308 323.576 320.781 327.302 319.254 331.028C318.538 332.773 317.823 334.518 317.107 336.264C312.603 347.256 308.079 358.24 303.515 369.208C301.605 373.801 299.704 378.398 297.817 383.001C297.423 383.964 297.028 384.926 296.622 385.918C295.796 387.934 294.97 389.951 294.144 391.968C291.384 398.691 288.572 405.389 285.73 412.077C283.291 417.824 280.886 423.584 278.501 429.354C277.032 432.901 275.55 436.44 274.027 439.964C266.324 457.824 262.612 472.142 264.001 492C271.261 492 278.521 492 286.001 492C294.957 475.806 303.52 459.455 311.834 442.925C313.211 440.188 314.599 437.456 315.994 434.728C317.708 431.377 319.406 428.018 321.093 424.654C321.731 423.387 322.375 422.123 323.024 420.862C323.919 419.12 324.792 417.367 325.665 415.613C326.166 414.622 326.667 413.631 327.184 412.611C328.254 410.066 328.254 410.066 327.306 407.79C325.4 405.174 323.05 403.419 320.501 401.438C317.407 399.023 315.185 397.276 313.001 394C313.329 387.88 313.329 387.88 315.206 385.423C317.515 383.593 319.777 382.749 322.544 381.738C323.617 381.342 324.691 380.946 325.796 380.537C326.916 380.133 328.035 379.729 329.189 379.312C330.32 378.897 331.451 378.481 332.617 378.053C335.409 377.028 338.204 376.01 341.001 375C341.225 364.886 340.666 354.829 339.994 344.742C339.873 342.857 339.762 340.971 339.66 339.084C339.512 336.334 339.332 333.588 339.146 330.84C339.106 329.996 339.066 329.152 339.025 328.283C338.857 326.075 338.661 324.114 338.001 322C335.718 319.917 335.718 319.917 333.001 319C332.135 318.608 331.269 318.216 330.376 317.812C327.947 316.838 327.947 316.838 325.001 317ZM172.001 321C170.681 338.82 169.361 356.64 168.001 375C176.839 378.209 176.839 378.209 185.683 381.402C186.777 381.803 187.87 382.204 188.997 382.617C190.123 383.026 191.249 383.434 192.409 383.855C195.001 385 195.001 385 196.001 387C196.697 394.072 196.697 394.072 194.126 397.5C193.107 398.36 192.06 399.188 191.001 400C189.735 401.031 189.735 401.031 188.443 402.082C185.979 404.077 183.495 406.043 181.001 408C186.747 420.329 192.731 432.506 198.973 444.591C201.27 449.039 203.557 453.492 205.845 457.945C206.292 458.814 206.738 459.683 207.198 460.578C212.555 471.008 217.785 481.498 223.001 492C230.591 492 238.181 492 246.001 492C246.868 474.128 244.991 462.223 237.751 446.062C236.881 444.032 236.016 441.999 235.155 439.965C233.361 435.738 231.547 431.521 229.717 427.31C225.796 418.25 222.11 409.095 218.408 399.945C216.779 395.927 215.135 391.916 213.491 387.905C209.793 378.877 206.125 369.837 202.495 360.781C200.723 356.362 198.944 351.945 197.163 347.529C195.931 344.471 194.705 341.412 193.485 338.349C192.135 334.958 190.771 331.572 189.404 328.188C189.001 327.167 188.599 326.147 188.185 325.095C187.808 324.171 187.432 323.246 187.044 322.293C186.72 321.484 186.396 320.674 186.063 319.841C182.662 313.943 177.179 318.929 172.001 321ZM82.8138 361.875C57.2335 388.431 56.554 428.423 54.0013 463C53.9497 463.694 53.8982 464.388 53.8451 465.103C53.6957 467.158 53.554 469.214 53.4153 471.27C53.3349 472.447 53.2545 473.625 53.1717 474.839C52.9376 480.555 53.0013 486.279 53.0013 492C103.161 492 153.321 492 205.001 492C203.401 487.2 201.586 482.922 199.302 478.453C198.748 477.357 198.748 477.357 198.183 476.238C197.384 474.66 196.584 473.082 195.783 471.505C194.513 469.005 193.25 466.503 191.988 463.999C188.402 456.885 184.808 449.774 181.202 442.669C178.993 438.316 176.794 433.958 174.601 429.596C173.766 427.94 172.926 426.285 172.083 424.632C170.903 422.318 169.736 419.998 168.571 417.676C168.223 417 167.874 416.324 167.515 415.627C165.424 411.418 164.306 407.695 164.001 403C165.782 398.846 168.745 396.08 172.001 393C171.361 392.746 170.72 392.492 170.06 392.23C168.266 391.517 166.475 390.798 164.685 390.074C163.081 389.432 161.47 388.804 159.849 388.207C155.357 386.488 155.357 386.488 153.801 384.351C152.683 381.065 152.969 378.341 153.208 374.883C153.253 374.189 153.298 373.496 153.344 372.781C153.49 370.561 153.652 368.343 153.814 366.125C153.912 364.672 154.009 363.219 154.105 361.766C154.478 356.18 154.883 350.597 155.297 345.014C155.388 343.787 155.478 342.561 155.572 341.297C155.653 340.22 155.734 339.143 155.818 338.034C156.081 333.687 156.092 329.353 156.001 325C130.919 325 100.226 345.292 82.8138 361.875ZM355.001 326C355.542 339.155 356.328 352.276 357.341 365.403C357.582 368.601 357.797 371.8 358.001 375C358.1 376.2 358.1 376.2 358.2 377.423C358.379 380.82 358.096 382.827 356.451 385.832C353.404 388.528 350.687 389.479 346.814 390.688C344.527 391.41 342.251 392.17 340.001 393C339.671 393.66 339.341 394.32 339.001 395C339.742 395.507 339.742 395.507 340.497 396.023C341.458 396.692 341.458 396.692 342.439 397.375C343.396 398.036 343.396 398.036 344.372 398.711C346.001 400 346.001 400 347.001 402C347.302 406.317 346.812 409.124 344.865 412.969C344.397 413.909 343.929 414.848 343.446 415.816C342.673 417.32 342.673 417.32 341.884 418.855C341.353 419.912 340.822 420.968 340.274 422.056C338.57 425.439 336.848 428.813 335.126 432.188C334.005 434.408 332.886 436.628 331.767 438.85C326.456 449.371 321.103 459.868 315.504 470.24C311.69 477.379 308.445 484.62 305.001 492C356.481 492 407.961 492 461.001 492C460.065 422.722 460.065 422.722 430.001 363C408.807 344.326 382.745 331.262 355.001 326ZM254.001 341C252.86 348.416 251.721 355.832 250.585 363.249C250.057 366.695 249.528 370.14 248.997 373.585C248.79 374.931 248.583 376.276 248.376 377.621C248.275 378.281 248.173 378.94 248.069 379.619C247.373 384.146 246.699 388.675 246.031 393.205C245.448 397.142 244.824 401.059 244.081 404.969C242.322 414.718 244.108 421.495 248.251 430.438C248.768 431.645 249.285 432.852 249.818 434.096C251.868 439.939 251.868 439.939 256.001 444C257.625 440.427 259.207 436.839 260.756 433.233C261.543 431.423 262.361 429.625 263.179 427.828C263.928 426.069 263.928 426.069 264.693 424.273C265.159 423.216 265.625 422.158 266.105 421.068C269.091 411.175 265.494 398.553 263.97 388.578C263.772 387.258 263.574 385.937 263.376 384.617C262.966 381.884 262.552 379.151 262.136 376.419C261.602 372.916 261.076 369.412 260.552 365.908C260.049 362.547 259.541 359.188 259.033 355.828C258.844 354.57 258.655 353.312 258.461 352.015C258.284 350.86 258.107 349.704 257.925 348.513C257.693 346.984 257.693 346.984 257.456 345.424C257.116 343.001 257.116 343.001 256.001 341C255.341 341 254.681 341 254.001 341ZM274.001 351C274.455 354.626 274.914 358.25 275.376 361.875C275.503 362.888 275.629 363.901 275.759 364.945C276.582 371.362 277.636 377.677 279.001 384C280.812 381.284 281.948 378.902 283.165 375.895C283.565 374.912 283.965 373.929 284.376 372.916C284.789 371.892 285.201 370.868 285.626 369.812C286.047 368.777 286.467 367.741 286.9 366.674C287.937 364.117 288.969 361.559 290.001 359C284.721 356.36 279.441 353.72 274.001 351ZM226.939 354.5C225.944 355.001 225.944 355.001 224.929 355.512C223.286 356.339 221.643 357.169 220.001 358C222.752 366.901 226.404 375.416 230.001 384C230.331 384 230.661 384 231.001 384C231.677 379.814 232.34 375.626 233.001 371.438C233.287 369.665 233.287 369.665 233.579 367.857C234.47 362.182 235.271 356.748 235.001 351C232.367 351 229.314 353.298 226.939 354.5Z" fill="url(#paint0_linear_3013_127)"/>
<defs>
<linearGradient id="paint0_linear_3013_127" x1="255.318" y1="2.45996" x2="255.318" y2="508.649" gradientUnits="userSpaceOnUse">
<stop stop-color="#E6612E"/>
<stop offset="1" stop-color="#803CC5"/>
</linearGradient>
</defs>
</svg>
