<svg width="512" height="512" viewBox="0 0 512 512" fill="none" xmlns="http://www.w3.org/2000/svg">
<path d="M95.5816 7.37324C97.0615 7.37203 97.0615 7.37203 98.5713 7.37078C99.7124 7.35775 100.854 7.34471 102.029 7.33127C103.283 7.34243 104.537 7.35358 105.829 7.36507C107.175 7.35931 108.52 7.35137 109.865 7.34144C113.566 7.32052 117.265 7.3309 120.966 7.34637C124.955 7.35766 128.944 7.34023 132.933 7.32647C140.749 7.30421 148.565 7.30905 156.381 7.32353C162.732 7.33481 169.083 7.33636 175.434 7.33091C176.337 7.33014 177.24 7.32938 178.171 7.32859C180.005 7.32699 181.84 7.32537 183.674 7.32373C200.885 7.30946 218.096 7.32587 235.308 7.35273C250.083 7.37507 264.859 7.37119 279.635 7.34813C296.783 7.32139 313.932 7.31083 331.081 7.3262C332.908 7.32779 334.736 7.32936 336.564 7.33091C337.463 7.33168 338.363 7.33245 339.289 7.33325C345.634 7.33757 351.979 7.33027 358.325 7.31851C366.055 7.30451 373.784 7.30825 381.514 7.33492C385.46 7.34808 389.406 7.35317 393.352 7.33667C396.962 7.32181 400.571 7.3299 404.181 7.35656C406.11 7.36482 408.04 7.34843 409.969 7.33127C411.11 7.34431 412.251 7.35735 413.427 7.37078C414.907 7.372 414.907 7.372 416.417 7.37324C419.985 8.23937 421.04 9.98469 422.999 13C423.48 15.0439 423.48 15.0439 423.453 17.0559C423.453 18.1965 423.453 18.1965 423.452 19.3602C423.432 20.1656 423.411 20.971 423.39 21.8008C423.384 22.6371 423.378 23.4735 423.373 24.3352C423.35 26.9949 423.3 29.6532 423.249 32.3125C423.229 34.1204 423.211 35.9284 423.194 37.7363C423.15 42.1581 423.081 46.5788 422.999 51C424.234 50.979 425.468 50.9581 426.74 50.9365C431.379 50.8634 436.017 50.8179 440.657 50.7803C442.653 50.7603 444.65 50.7331 446.647 50.6982C462.889 50.4216 476.833 51.2332 489.999 62C500.343 72.675 504.31 83.5071 504.266 98.1319C504.271 99.2449 504.276 100.358 504.28 101.505C504.293 105.23 504.291 108.955 504.29 112.681C504.296 115.353 504.302 118.026 504.31 120.699C504.327 127.204 504.332 133.708 504.333 140.213C504.334 145.502 504.338 150.792 504.345 156.081C504.362 171.092 504.371 186.102 504.37 201.112C504.37 201.92 504.37 202.729 504.37 203.562C504.37 204.372 504.369 205.181 504.369 206.015C504.369 219.131 504.388 232.247 504.416 245.363C504.445 258.843 504.458 272.323 504.457 285.804C504.456 293.367 504.462 300.929 504.483 308.492C504.501 314.932 504.506 321.372 504.492 327.812C504.486 331.095 504.488 334.377 504.503 337.659C504.518 341.227 504.509 344.793 504.494 348.36C504.504 349.386 504.514 350.411 504.525 351.467C504.411 363.455 499.919 373.653 491.776 382.383C479.323 394.343 465.227 396.337 448.529 396.227C447.347 396.227 446.165 396.228 444.948 396.228C441.085 396.227 437.222 396.211 433.358 396.195C430.663 396.19 427.967 396.189 425.271 396.187C418.929 396.181 412.586 396.164 406.244 396.144C399.015 396.122 391.786 396.111 384.557 396.101C369.705 396.08 354.852 396.043 339.999 396C339.999 409.53 339.999 423.06 339.999 437C343.686 436.965 347.372 436.93 351.171 436.895C354.775 436.871 358.38 436.853 361.984 436.835C364.473 436.82 366.961 436.8 369.45 436.774C373.044 436.737 376.639 436.72 380.233 436.707C381.331 436.692 382.428 436.676 383.559 436.66C396.502 436.657 406.597 439.92 417.187 447.187C426.667 456.668 428.242 467.238 428.321 480.184C428.318 481.36 428.315 482.537 428.312 483.75C428.328 484.942 428.344 486.135 428.36 487.363C428.366 498.313 428.366 498.313 424.999 503C422.387 504.306 420.475 504.129 417.548 504.134C416.383 504.139 415.218 504.143 414.018 504.148C412.727 504.148 411.436 504.147 410.106 504.147C408.729 504.15 407.352 504.154 405.976 504.158C402.18 504.168 398.384 504.172 394.588 504.175C390.499 504.179 386.411 504.188 382.322 504.197C372.442 504.217 362.562 504.227 352.682 504.236C348.034 504.24 343.385 504.245 338.736 504.251C323.29 504.268 307.844 504.282 292.397 504.289C288.388 504.291 284.378 504.293 280.368 504.295C279.371 504.296 278.374 504.296 277.347 504.297C261.19 504.305 245.033 504.33 228.876 504.363C212.301 504.396 195.726 504.414 179.151 504.417C169.839 504.419 160.528 504.428 151.216 504.453C143.289 504.475 135.361 504.483 127.433 504.473C123.386 504.469 119.339 504.471 115.292 504.49C111.59 504.508 107.888 504.507 104.186 504.491C102.206 504.488 100.227 504.504 98.2479 504.521C97.0777 504.512 95.9075 504.504 94.7019 504.495C93.6899 504.496 92.6778 504.497 91.6352 504.498C88.2644 503.861 87.1023 502.659 84.9991 500C83.222 494.669 83.8144 488.954 83.8116 483.375C83.7993 482.128 83.7871 480.882 83.7745 479.598C83.7551 467.351 85.0411 457.096 93.9717 447.988C104.972 438.785 117.044 436.957 130.874 436.437C131.944 436.394 133.014 436.351 134.116 436.307C136.744 436.201 139.371 436.099 141.999 436C141.244 435.555 141.244 435.555 140.474 435.101C111.124 417.726 111.124 417.726 105.999 400C105.999 398.68 105.999 397.36 105.999 396C105.337 396.004 104.674 396.009 103.992 396.013C97.0478 396.058 90.1038 396.088 83.1597 396.11C80.5741 396.12 77.9885 396.133 75.4029 396.151C71.6693 396.175 67.9358 396.187 64.2022 396.195C63.0611 396.206 61.9199 396.216 60.7442 396.227C44.378 396.229 31.2787 392.986 19.1905 381.422C10.4939 371.811 7.53711 361.336 7.61138 348.634C7.6033 346.963 7.6033 346.963 7.59506 345.258C7.5808 341.542 7.58788 337.825 7.59501 334.108C7.5893 331.437 7.58244 328.765 7.57421 326.094C7.55705 319.6 7.55618 313.106 7.56142 306.612C7.56547 301.331 7.56402 296.049 7.55868 290.768C7.55793 290.015 7.55718 289.262 7.5564 288.486C7.55487 286.956 7.55333 285.426 7.55179 283.896C7.53807 269.562 7.5435 255.227 7.55498 240.893C7.56491 227.797 7.55198 214.701 7.52805 201.606C7.50363 188.14 7.49405 174.675 7.50069 161.209C7.50418 153.657 7.502 146.104 7.48444 138.552C7.46968 132.122 7.46914 125.692 7.48652 119.262C7.495 115.985 7.49506 112.709 7.48186 109.433C7.46862 105.87 7.48023 102.309 7.49786 98.7466C7.48825 97.7255 7.47865 96.7043 7.46875 95.6523C7.59262 83.418 11.7338 73.0129 19.9991 64C30.8076 54.387 41.7167 50.8223 55.8936 50.9023C56.8409 50.9038 57.7883 50.9052 58.7644 50.9066C61.7801 50.9122 64.7958 50.9248 67.8116 50.9375C69.8604 50.9425 71.9092 50.9471 73.958 50.9512C78.9717 50.9622 83.9854 50.9794 88.9991 51C88.9676 49.3126 88.9676 49.3126 88.9356 47.5911C88.863 43.4073 88.8172 39.2235 88.7793 35.0393C88.7593 33.2303 88.732 31.4213 88.6973 29.6125C88.6486 27.0085 88.6261 24.4052 88.6084 21.8008C88.5878 20.9954 88.5671 20.19 88.5459 19.3602C88.5454 18.2196 88.5454 18.2196 88.545 17.0559C88.5361 16.3919 88.5272 15.728 88.518 15.0439C89.4466 11.0982 91.6176 8.33524 95.5816 7.37324ZM105.999 24C105.999 107.82 105.999 191.64 105.999 278C117.549 278 129.099 278 140.999 278C140.999 269.75 140.999 261.5 140.999 253C137.699 252.01 134.399 251.02 130.999 250C126.841 246.154 125.221 241.574 124.738 235.972C124.731 234.371 124.731 234.371 124.724 232.739C124.71 230.911 124.71 230.911 124.696 229.047C124.696 227.744 124.697 226.44 124.698 225.098C124.694 223.733 124.69 222.368 124.685 221.004C124.678 218.15 124.678 215.296 124.683 212.443C124.689 208.8 124.672 205.158 124.649 201.515C124.634 198.699 124.633 195.882 124.637 193.066C124.636 191.075 124.622 189.083 124.608 187.092C124.647 179.349 124.862 173.726 129.999 167.625C133.658 164.652 137.03 164.86 141.578 164.823C142.242 164.816 142.906 164.81 143.59 164.803C145.785 164.783 147.98 164.772 150.175 164.762C150.926 164.758 151.677 164.754 152.451 164.749C156.426 164.729 160.401 164.714 164.376 164.705C168.475 164.694 172.573 164.659 176.672 164.62C179.83 164.593 182.988 164.585 186.146 164.582C187.657 164.577 189.167 164.565 190.678 164.547C192.796 164.522 194.913 164.523 197.032 164.53C198.837 164.521 198.837 164.521 200.678 164.512C204.789 165.116 206.845 166.311 209.999 169C212.786 173.268 213.377 176.598 213.387 181.645C213.397 182.946 213.406 184.248 213.416 185.589C213.411 186.997 213.404 188.405 213.397 189.812C213.4 191.269 213.402 192.726 213.406 194.183C213.411 197.229 213.404 200.275 213.39 203.321C213.373 207.215 213.383 211.108 213.401 215.002C213.412 218.008 213.408 221.014 213.401 224.02C213.399 225.456 213.401 226.891 213.408 228.326C213.416 230.336 213.402 232.346 213.387 234.355C213.385 235.497 213.382 236.638 213.38 237.813C212.814 242.551 211.122 245.845 207.812 249.25C204.999 251 204.999 251 196.999 253C196.999 261.25 196.999 269.5 196.999 278C265.969 278 334.939 278 405.999 278C405.999 194.18 405.999 110.36 405.999 24C306.999 24 207.999 24 105.999 24ZM29.9991 79C24.0646 88.0269 23.8483 97.0221 23.8653 107.5C23.8631 108.533 23.8608 109.565 23.8585 110.63C23.8522 114.078 23.853 117.526 23.8538 120.974C23.8508 123.452 23.8474 125.929 23.8436 128.407C23.8357 134.43 23.8326 140.454 23.832 146.477C23.8315 151.375 23.8295 156.273 23.8263 161.172C23.8175 175.074 23.8129 188.977 23.8136 202.879C23.8137 203.628 23.8137 204.376 23.8138 205.147C23.8138 205.897 23.8138 206.646 23.8139 207.419C23.8143 219.565 23.8047 231.712 23.7906 243.858C23.7762 256.345 23.7693 268.832 23.7702 281.319C23.7705 288.324 23.7678 295.328 23.757 302.333C23.747 308.92 23.7473 315.508 23.7546 322.096C23.7556 324.51 23.7532 326.925 23.7472 329.34C23.7395 332.642 23.7441 335.944 23.7518 339.246C23.7467 340.196 23.7415 341.146 23.7362 342.125C23.7858 351.791 24.9674 361.151 30.9991 369C38.6188 376.246 46.0279 379.139 56.5454 379.113C57.6061 379.113 58.6667 379.113 59.7595 379.113C60.8879 379.108 62.0162 379.103 63.1787 379.098C64.3466 379.096 65.5146 379.095 66.7178 379.093C70.4366 379.088 74.1553 379.075 77.8741 379.062C80.4001 379.057 82.9261 379.053 85.4522 379.049C91.6345 379.038 97.8168 379.021 103.999 379C103.954 378.163 103.909 377.326 103.862 376.463C103.738 374.155 103.614 371.846 103.491 369.537C103.359 367.128 103.218 364.718 103.071 362.31C102.616 352.222 103.701 343.694 108.999 335C108.999 334.34 108.999 333.68 108.999 333C108.179 332.994 107.359 332.988 106.514 332.982C98.7884 332.924 91.0635 332.852 83.3385 332.764C79.3669 332.72 75.3954 332.68 71.4236 332.654C67.5914 332.628 63.7596 332.587 59.9277 332.537C58.4649 332.52 57.0021 332.509 55.5392 332.502C53.4918 332.493 51.4454 332.465 49.3982 332.432C48.2324 332.421 47.0666 332.41 45.8654 332.399C42.9991 332 42.9991 332 41.1616 330.598C38.2986 326.663 38.8541 322.656 38.8586 317.974C38.8556 317.028 38.8527 316.081 38.8496 315.105C38.8409 311.913 38.8394 308.72 38.8379 305.527C38.8333 303.246 38.8283 300.965 38.8229 298.683C38.8097 292.47 38.8033 286.257 38.7989 280.044C38.7959 276.163 38.7918 272.283 38.7874 268.402C38.7753 257.656 38.7649 246.91 38.7615 236.164C38.7613 235.476 38.7611 234.788 38.7608 234.079C38.7606 233.389 38.7604 232.699 38.7602 231.988C38.7597 230.591 38.7593 229.193 38.7588 227.795C38.7586 227.102 38.7584 226.409 38.7582 225.694C38.7542 214.471 38.7368 203.248 38.7135 192.025C38.6897 180.5 38.6775 168.975 38.6761 157.45C38.6751 150.98 38.6692 144.511 38.6513 138.041C38.6348 131.952 38.6327 125.862 38.6414 119.773C38.6422 117.54 38.6379 115.307 38.628 113.074C38.6153 110.021 38.6211 106.968 38.6316 103.914C38.6195 102.596 38.6195 102.596 38.6072 101.251C38.6527 95.5311 39.384 90.165 41.9991 85C46.6325 82.2514 52.2704 82.6564 57.5537 82.5859C58.9061 82.5569 58.9061 82.5569 60.2857 82.5272C63.1484 82.4677 66.0111 82.4212 68.8741 82.375C70.822 82.3368 72.7699 82.2977 74.7178 82.2578C79.4781 82.1621 84.2385 82.0779 88.9991 82C88.9991 77.38 88.9991 72.76 88.9991 68C83.1825 67.9005 77.3664 67.8283 71.5491 67.7803C69.5734 67.7602 67.5978 67.733 65.6224 67.6982C62.7699 67.6493 59.9183 67.6269 57.0655 67.6094C56.1932 67.5887 55.321 67.5681 54.4223 67.5468C44.5822 67.5433 36.4693 71.5994 29.9991 79ZM422.999 68C422.999 72.62 422.999 77.24 422.999 82C424.21 82.0198 425.42 82.0396 426.668 82.0601C431.174 82.1363 435.68 82.225 440.187 82.3174C442.134 82.3556 444.082 82.3904 446.029 82.4219C448.835 82.4677 451.639 82.5257 454.444 82.5859C455.743 82.6033 455.743 82.6033 457.068 82.6209C466.368 82.8462 466.368 82.8462 469.999 85C473.057 91.0428 473.429 97.2574 473.373 103.901C473.377 104.857 473.381 105.814 473.385 106.799C473.395 109.982 473.383 113.164 473.371 116.347C473.374 118.637 473.378 120.928 473.382 123.218C473.392 129.422 473.382 135.626 473.369 141.83C473.358 148.324 473.362 154.818 473.364 161.311C473.365 172.21 473.354 183.109 473.335 194.008C473.316 205.22 473.309 216.432 473.315 227.644C473.321 241.167 473.318 254.69 473.306 268.212C473.301 273.375 473.3 278.539 473.302 283.702C473.304 289.775 473.296 295.848 473.28 301.921C473.276 304.152 473.275 306.384 473.278 308.616C473.281 311.655 473.272 314.694 473.26 317.734C473.264 318.623 473.267 319.512 473.271 320.427C473.265 321.241 473.26 322.055 473.254 322.894C473.253 323.595 473.252 324.297 473.251 325.02C472.95 327.382 472.242 328.976 470.999 331C468.112 332.444 465.608 332.141 462.381 332.158C461.693 332.163 461.005 332.168 460.297 332.173C457.981 332.189 455.666 332.197 453.35 332.205C451.695 332.215 450.039 332.225 448.384 332.235C443.88 332.262 439.376 332.283 434.872 332.303C430.169 332.325 425.466 332.353 420.763 332.379C411.852 332.429 402.941 332.474 394.031 332.517C383.888 332.567 373.746 332.622 363.603 332.677C342.735 332.791 321.867 332.897 300.999 333C300.999 348.18 300.999 363.36 300.999 379C321.67 379.068 342.342 379.123 363.013 379.155C372.612 379.171 382.211 379.192 391.81 379.226C400.179 379.256 408.549 379.276 416.919 379.282C421.348 379.286 425.776 379.295 430.205 379.317C434.38 379.338 438.555 379.344 442.731 379.339C444.256 379.34 445.782 379.346 447.308 379.358C459.05 379.442 469.804 378.908 479.058 371.012C487.501 362.263 488.308 350.876 488.253 339.267C488.256 338.233 488.259 337.199 488.262 336.133C488.27 332.694 488.264 329.254 488.258 325.815C488.261 323.338 488.264 320.862 488.268 318.386C488.277 312.373 488.275 306.36 488.27 300.348C488.265 295.458 488.265 290.568 488.267 285.677C488.267 284.631 488.267 284.631 488.268 283.563C488.268 282.146 488.269 280.728 488.27 279.311C488.275 266.037 488.269 252.763 488.258 239.49C488.249 228.118 488.251 216.746 488.26 205.374C488.271 192.147 488.275 178.92 488.269 165.694C488.268 164.281 488.267 162.869 488.267 161.456C488.266 160.761 488.266 160.067 488.266 159.351C488.264 154.471 488.267 149.592 488.272 144.712C488.278 138.135 488.273 131.558 488.262 124.981C488.259 122.571 488.26 120.162 488.264 117.753C488.27 114.455 488.263 111.158 488.253 107.86C488.257 106.915 488.262 105.969 488.267 104.995C488.198 93.2088 486.558 84.0197 478.331 75.2148C471.441 68.7979 464.13 67.5464 455.03 67.707C454.109 67.7113 453.188 67.7155 452.24 67.7199C449.326 67.7366 446.413 67.7742 443.499 67.8125C441.512 67.8276 439.525 67.8412 437.538 67.8535C432.691 67.8864 427.845 67.9381 422.999 68ZM54.9991 99C54.9991 170.61 54.9991 242.22 54.9991 316C83.3791 316 111.759 316 140.999 316C140.999 309.07 140.999 302.14 140.999 295C137.736 294.986 134.474 294.972 131.112 294.957C127.948 294.926 124.784 294.887 121.62 294.847C119.424 294.824 117.227 294.81 115.03 294.804C111.869 294.795 108.71 294.754 105.55 294.707C104.079 294.713 104.079 294.713 102.579 294.719C101.198 294.689 101.198 294.689 99.7893 294.659C98.9833 294.653 98.1772 294.646 97.3467 294.639C93.7701 293.665 92.3166 291.855 89.9991 289C89.5045 286.192 89.3186 283.988 89.3598 281.186C89.3515 280.405 89.3431 279.625 89.3345 278.821C89.3126 276.211 89.3262 273.602 89.3396 270.991C89.3312 269.118 89.3205 267.246 89.3079 265.373C89.2797 260.291 89.2822 255.209 89.2902 250.126C89.2933 244.815 89.2683 239.503 89.2462 234.191C89.2087 224.133 89.1966 214.075 89.1936 204.017C89.1889 192.566 89.156 181.115 89.1207 169.664C89.0487 146.11 89.0132 122.555 88.9991 99C77.7791 99 66.5591 99 54.9991 99ZM422.999 99C422.998 101.369 422.996 103.738 422.995 106.179C422.979 128.473 422.936 150.766 422.867 173.06C422.832 184.522 422.807 195.984 422.803 207.446C422.8 217.435 422.78 227.424 422.739 237.413C422.717 242.704 422.705 247.994 422.713 253.284C422.72 258.262 422.705 263.24 422.671 268.218C422.663 270.046 422.663 271.874 422.672 273.703C422.684 276.198 422.665 278.691 422.638 281.186C422.649 281.91 422.66 282.635 422.671 283.382C422.597 287.074 422.057 288.919 419.895 291.948C416.322 294.48 414.376 294.629 410.02 294.639C409.33 294.648 408.639 294.656 407.928 294.665C405.621 294.686 403.316 294.673 401.01 294.659C399.354 294.668 397.698 294.678 396.042 294.691C391.55 294.719 387.059 294.717 382.568 294.709C377.873 294.706 373.178 294.731 368.482 294.753C359.593 294.79 350.704 294.802 341.815 294.805C331.694 294.81 321.573 294.843 311.452 294.878C290.634 294.95 269.817 294.987 248.999 295C251.361 296.575 253.189 297.503 255.749 298.562C259.514 300.333 260.921 302.227 263.062 305.75C264.665 308.238 264.665 308.238 266.999 310C270.838 310.456 274.392 310.245 278.245 309.988C283.71 310.005 289.056 312.057 292.999 316C295.113 316.097 297.23 316.122 299.345 316.12C300.014 316.121 300.683 316.122 301.372 316.123C303.637 316.124 305.902 316.119 308.167 316.113C309.809 316.113 311.452 316.113 313.094 316.114C317.507 316.114 321.92 316.108 326.333 316.101C330.468 316.096 334.603 316.095 338.738 316.095C350.846 316.089 362.954 316.075 375.062 316.062C415.621 316.032 415.621 316.032 456.999 316C456.999 244.39 456.999 172.78 456.999 99C445.779 99 434.559 99 422.999 99ZM140.999 180C140.999 197.16 140.999 214.32 140.999 232C141.329 232 141.659 232 141.999 232C142.111 231.165 142.111 231.165 142.226 230.312C143.537 222.703 146.893 217.946 152.437 212.687C160.141 207.614 166.813 207.053 175.999 208C179.311 208.924 182.077 210.204 184.999 212C185.907 212.557 186.814 213.114 187.749 213.687C191.981 218.036 194.308 223.619 196.999 229C196.999 212.83 196.999 196.66 196.999 180C178.519 180 160.039 180 140.999 180ZM159.999 228C158.361 232.078 157.747 235.524 157.734 239.902C157.726 241.059 157.718 242.216 157.709 243.407C157.71 244.662 157.711 245.917 157.712 247.21C157.706 248.555 157.699 249.901 157.691 251.247C157.676 254.136 157.668 257.025 157.664 259.915C157.657 264.482 157.635 269.049 157.611 273.617C157.558 284.132 157.524 294.647 157.491 305.162C157.461 314.81 157.426 324.457 157.375 334.104C157.352 338.646 157.338 343.188 157.331 347.73C157.326 350.551 157.311 353.372 157.295 356.193C157.286 358.129 157.288 360.064 157.289 361.999C157.281 363.147 157.273 364.296 157.264 365.479C157.26 366.978 157.26 366.978 157.255 368.508C156.999 371 156.999 371 154.999 374C151.088 375.033 148.871 375.379 145.124 373.75C142.999 372 142.999 372 141.999 369C141.846 366.417 141.742 363.855 141.683 361.27C141.662 360.519 141.641 359.769 141.62 358.996C141.554 356.601 141.495 354.207 141.437 351.812C141.393 350.188 141.35 348.564 141.306 346.939C141.199 342.96 141.097 338.98 140.999 335C139.728 335.146 138.456 335.292 137.146 335.443C136.074 335.566 136.074 335.566 134.979 335.692C130.193 336.436 126.436 339.239 123.421 342.934C119.258 349.262 118.817 354.509 119.312 362C119.36 362.775 119.409 363.549 119.459 364.347C119.626 366.899 119.81 369.449 119.999 372C120.098 373.368 120.098 373.368 120.199 374.763C120.408 377.552 120.637 380.338 120.874 383.125C120.94 383.989 121.006 384.852 121.075 385.742C122.074 396.707 125.648 403.562 133.999 411C138.402 414.011 143 416.592 147.687 419.125C156.344 423.814 163.454 427.91 167.999 437C204.299 437 240.599 437 277.999 437C282.28 427.582 284.14 422.132 284.192 412.358C284.2 411.498 284.208 410.639 284.217 409.754C284.241 406.921 284.258 404.087 284.272 401.254C284.28 399.799 284.28 399.799 284.289 398.315C284.315 393.186 284.335 388.057 284.349 382.927C284.363 378.686 284.39 374.444 284.431 370.203C284.48 365.075 284.505 359.947 284.512 354.819C284.519 352.867 284.534 350.915 284.558 348.964C284.59 346.233 284.59 343.503 284.583 340.772C284.599 339.969 284.615 339.166 284.632 338.339C284.588 334.304 284.199 331.728 281.677 328.495C279.17 325.721 279.17 325.721 275.562 325.312C271.158 326.162 269.372 328.119 265.999 331C262.615 331.875 260.254 332.355 256.874 331.398C254.047 329.29 254.158 327.101 253.624 323.687C252.569 318.07 252.569 318.07 249.187 313.687C245.63 311.805 243.945 311.244 239.999 312C237.028 313.957 234.922 316.087 232.562 318.75C229.999 321 229.999 321 226.937 321.562C223.143 320.836 222.203 320.191 219.999 317C219.482 315.345 219.007 313.676 218.562 312C217.638 308.671 217.066 307.08 214.812 304.375C210.15 302.096 206.193 302.286 201.312 303.875C198.197 306.737 196.818 309.986 195.112 313.82C193.999 316 193.999 316 191.999 317C185.819 317.572 185.819 317.572 182.804 315.469C180.352 312.115 180.448 309.188 180.501 305.19C180.495 304.407 180.49 303.624 180.484 302.818C180.475 301.122 180.475 299.425 180.483 297.729C180.495 295.043 180.484 292.358 180.467 289.671C180.44 284.937 180.434 280.203 180.436 275.468C180.438 267.894 180.424 260.32 180.38 252.745C180.37 250.101 180.379 247.458 180.389 244.814C180.383 243.189 180.376 241.564 180.368 239.94C180.376 239.207 180.383 238.473 180.391 237.718C180.337 232.268 178.983 229.13 175.312 225.187C169.516 222.211 164.236 223.265 159.999 228ZM228.999 295C229.989 295.99 230.979 296.98 231.999 298C233.979 297.34 235.959 296.68 237.999 296C237.999 295.67 237.999 295.34 237.999 295C235.029 295 232.059 295 228.999 295ZM300.999 396C300.962 397.787 300.924 399.573 300.886 401.414C300.569 413.645 300.207 425.144 296.999 437C305.579 437 314.159 437 322.999 437C322.999 423.47 322.999 409.94 322.999 396C315.739 396 308.479 396 300.999 396ZM169.999 454C169.999 456.31 169.999 458.62 169.999 461C204.979 461 239.959 461 275.999 461C275.999 458.69 275.999 456.38 275.999 454C241.019 454 206.039 454 169.999 454ZM106.562 460.312C105.923 460.865 105.285 461.418 104.628 461.988C98.6276 469.399 100.999 479.038 100.999 488C203.299 488 305.599 488 410.999 488C412.132 473.168 412.132 473.168 406.526 461.109C399.03 454.7 390.46 453.542 380.868 453.659C379.91 453.659 378.953 453.659 377.967 453.658C374.839 453.66 371.712 453.683 368.585 453.707C366.402 453.713 364.219 453.717 362.036 453.72C356.319 453.731 350.601 453.761 344.883 453.794C339.038 453.825 333.192 453.838 327.347 453.853C315.897 453.886 304.448 453.937 292.999 454C292.985 454.832 292.985 454.832 292.971 455.681C292.917 458.205 292.833 460.727 292.749 463.25C292.735 464.123 292.721 464.995 292.706 465.895C292.674 466.739 292.642 467.583 292.608 468.453C292.587 469.228 292.567 470.003 292.545 470.802C291.779 473.887 290.511 475.09 287.999 477C285.488 477.503 285.488 477.503 282.61 477.508C281.516 477.519 280.423 477.53 279.296 477.542C278.101 477.534 276.906 477.526 275.675 477.518C274.413 477.525 273.151 477.532 271.85 477.539C268.391 477.557 264.933 477.55 261.474 477.537C257.854 477.527 254.234 477.537 250.614 477.543C244.534 477.55 238.455 477.541 232.375 477.521C225.347 477.5 218.32 477.507 211.292 477.529C205.257 477.547 199.222 477.549 193.187 477.539C189.583 477.533 185.979 477.532 182.375 477.545C178.358 477.559 174.341 477.54 170.323 477.518C168.531 477.53 168.531 477.53 166.702 477.542C165.062 477.525 165.062 477.525 163.388 477.508C162.439 477.506 161.489 477.505 160.51 477.503C157.254 476.851 156.056 475.552 153.999 473C153.453 470.802 153.453 470.802 153.39 468.453C153.357 467.609 153.325 466.764 153.292 465.895C153.278 465.022 153.264 464.149 153.249 463.25C153.219 462.362 153.19 461.474 153.159 460.559C153.089 458.372 153.036 456.187 152.999 454C148.464 453.925 143.93 453.871 139.394 453.835C137.855 453.82 136.316 453.8 134.777 453.774C119.601 453.342 119.601 453.342 106.562 460.312Z" fill="url(#paint0_linear_3129_98)"/>
<path d="M143.33 48.7254C144.588 48.7158 145.847 48.7063 147.143 48.6965C148.509 48.6967 149.875 48.6977 151.241 48.6992C152.652 48.6953 154.063 48.691 155.473 48.6862C158.427 48.6788 161.381 48.6791 164.335 48.6843C168.106 48.6901 171.877 48.6732 175.649 48.65C178.562 48.6352 181.476 48.6344 184.389 48.6375C185.779 48.637 187.169 48.6318 188.559 48.6217C203.96 48.5234 203.96 48.5234 209.741 53.5C213.362 58.2956 214.124 61.3591 214.175 67.2881C214.195 69.2359 214.195 69.2359 214.214 71.2231C214.222 72.6435 214.23 74.064 214.237 75.4844C214.241 76.201 214.245 76.9177 214.249 77.6561C214.27 81.4507 214.284 85.2453 214.294 89.04C214.305 92.9485 214.339 96.8563 214.379 100.765C214.405 103.779 214.413 106.794 214.417 109.809C214.422 111.249 214.433 112.689 214.452 114.129C214.621 128.117 214.621 128.117 209.998 134C205.088 138.665 201.404 139.118 194.796 139.177C193.541 139.19 192.286 139.203 190.993 139.216C189.625 139.224 188.257 139.232 186.889 139.238C185.85 139.244 185.85 139.244 184.791 139.251C181.125 139.271 177.458 139.286 173.792 139.295C170.022 139.306 166.252 139.341 162.482 139.38C159.568 139.407 156.655 139.415 153.741 139.418C152.352 139.423 150.963 139.435 149.574 139.453C141.649 139.553 135.696 139.471 128.998 135C124.675 129.679 123.88 125.663 123.837 118.966C123.828 117.747 123.818 116.529 123.808 115.273C123.804 113.96 123.8 112.646 123.795 111.293C123.789 109.925 123.784 108.558 123.778 107.19C123.767 104.325 123.762 101.459 123.758 98.5935C123.753 94.9352 123.729 91.2773 123.7 87.6191C123.681 84.7939 123.676 81.9689 123.675 79.1437C123.67 77.1435 123.652 75.1434 123.633 73.1434C123.653 64.992 123.982 59.5726 129.373 53.1875C133.844 49.4623 137.582 48.7493 143.33 48.7254ZM140.998 66C140.998 84.48 140.998 102.96 140.998 122C159.478 122 177.958 122 196.998 122C196.998 103.52 196.998 85.04 196.998 66C178.518 66 160.038 66 140.998 66Z" fill="url(#paint1_linear_3129_98)"/>
<path d="M254.254 105.853C255.926 105.842 255.926 105.842 257.632 105.831C259.475 105.827 259.475 105.827 261.355 105.823C263.289 105.813 263.289 105.813 265.262 105.803C268.806 105.786 272.349 105.775 275.893 105.767C278.106 105.762 280.32 105.756 282.533 105.749C289.458 105.73 296.383 105.716 303.307 105.708C311.303 105.698 319.297 105.672 327.293 105.631C333.471 105.601 339.649 105.586 345.828 105.583C349.518 105.581 353.209 105.572 356.9 105.547C361.018 105.519 365.135 105.523 369.253 105.53C370.476 105.517 371.698 105.504 372.958 105.491C381.195 105.542 381.195 105.542 385.236 107.846C387.516 110.633 387.925 112.413 387.998 116C386.949 119.846 386.393 120.737 382.998 123C380.535 123.26 380.535 123.26 377.546 123.274C375.847 123.289 375.847 123.289 374.113 123.304C372.87 123.305 371.626 123.306 370.344 123.306C369.035 123.315 367.726 123.323 366.377 123.332C362.784 123.354 359.191 123.362 355.598 123.367C353.353 123.371 351.109 123.377 348.864 123.384C341.032 123.409 333.2 123.422 325.368 123.426C318.068 123.429 310.769 123.459 303.469 123.501C297.201 123.536 290.934 123.551 284.666 123.552C280.923 123.553 277.18 123.561 273.437 123.59C269.261 123.621 265.086 123.612 260.911 123.599C259.671 123.614 258.431 123.629 257.154 123.644C247.83 123.564 247.83 123.564 244.726 120.685C242.452 117.151 242.323 115.126 242.998 111C246.423 106.662 248.891 105.876 254.254 105.853Z" fill="url(#paint2_linear_3129_98)"/>
<path d="M254.376 178.853C256.05 178.842 256.05 178.842 257.758 178.831C259.596 178.827 259.596 178.827 261.47 178.823C263.405 178.813 263.405 178.813 265.378 178.803C269.656 178.782 273.933 178.772 278.211 178.762C279.684 178.758 281.157 178.754 282.63 178.749C289.549 178.73 296.469 178.716 303.388 178.708C311.375 178.698 319.361 178.672 327.348 178.631C333.522 178.601 339.696 178.586 345.87 178.583C349.558 178.581 353.245 178.572 356.932 178.547C361.045 178.519 365.158 178.523 369.271 178.53C370.492 178.517 371.713 178.504 372.971 178.491C381.198 178.542 381.198 178.542 385.233 180.846C387.533 183.65 388 185.378 388 189C386.396 192.529 385.258 193.828 382 196C379.552 196.26 379.552 196.26 376.586 196.274C374.899 196.289 374.899 196.289 373.179 196.304C371.944 196.305 370.71 196.306 369.438 196.306C367.489 196.319 367.489 196.319 365.501 196.332C361.934 196.354 358.368 196.362 354.802 196.367C352.574 196.371 350.346 196.377 348.118 196.384C340.344 196.409 332.571 196.422 324.797 196.426C317.552 196.429 310.307 196.459 303.062 196.501C296.841 196.536 290.62 196.551 284.399 196.552C280.684 196.553 276.969 196.561 273.253 196.59C269.109 196.621 264.965 196.612 260.821 196.599C258.975 196.622 258.975 196.622 257.093 196.644C247.838 196.564 247.838 196.564 244.73 193.685C242.466 190.171 242.403 188.108 243 184C245.741 179.041 249.056 178.876 254.376 178.853Z" fill="url(#paint3_linear_3129_98)"/>
<path d="M260.895 64.3689C262.206 64.3617 263.517 64.3546 264.868 64.3472C268.457 64.3287 272.045 64.3416 275.634 64.3613C279.392 64.3777 283.15 64.3689 286.907 64.3638C293.216 64.3593 299.525 64.3751 305.834 64.4031C313.127 64.4351 320.42 64.4351 327.713 64.4179C334.732 64.402 341.75 64.4087 348.769 64.4258C351.755 64.4327 354.741 64.4316 357.727 64.4243C361.895 64.4152 366.063 64.4391 370.231 64.4666C371.471 64.46 372.711 64.4535 373.989 64.4468C375.123 64.4595 376.257 64.4722 377.426 64.4853C378.904 64.4895 378.904 64.4895 380.412 64.4938C383.74 65.145 384.913 66.377 386.999 69C388.145 72.5938 388.315 74.2675 386.811 77.75C384.876 80.1527 383.828 80.8878 380.999 82C378.459 82.2545 378.459 82.2545 375.54 82.2607C374.431 82.2678 373.322 82.2749 372.179 82.2822C370.967 82.2797 369.755 82.2772 368.507 82.2747C367.227 82.2798 365.947 82.2849 364.628 82.2901C361.119 82.3035 357.611 82.3041 354.103 82.3016C351.173 82.3005 348.243 82.3054 345.313 82.3102C338.4 82.3213 331.488 82.3217 324.575 82.3157C317.446 82.3096 310.317 82.322 303.188 82.3432C297.065 82.3609 290.942 82.3669 284.819 82.3636C281.163 82.3618 277.507 82.3644 273.851 82.3783C269.774 82.3932 265.697 82.3839 261.62 82.3723C260.41 82.38 259.2 82.3876 257.953 82.3955C256.841 82.3885 255.73 82.3815 254.584 82.3742C253.139 82.3745 253.139 82.3745 251.664 82.3747C248.48 81.9272 246.589 80.8746 243.999 79C242.429 75.8613 242.647 73.4614 242.999 70C247.308 63.2471 253.512 64.2992 260.895 64.3689Z" fill="url(#paint4_linear_3129_98)"/>
<path d="M252.617 220.492C253.761 220.481 254.905 220.47 256.084 220.458C257.961 220.47 257.961 220.47 259.875 220.482C261.209 220.477 262.543 220.47 263.877 220.461C267.497 220.443 271.116 220.45 274.736 220.463C278.525 220.473 282.313 220.463 286.102 220.457C292.464 220.45 298.825 220.459 305.188 220.479C312.543 220.5 319.897 220.493 327.252 220.471C333.568 220.453 339.883 220.451 346.198 220.461C349.97 220.467 353.741 220.468 357.513 220.455C361.059 220.443 364.604 220.451 368.15 220.474C370.072 220.482 371.994 220.47 373.916 220.458C375.632 220.475 375.632 220.475 377.383 220.492C378.377 220.494 379.371 220.495 380.395 220.497C383.738 221.143 384.909 222.364 387 225C388.176 228.685 388.335 230.283 386.688 233.813C385 236 385 236 383 237C381.21 237.102 379.416 237.139 377.623 237.147C375.911 237.158 375.911 237.158 374.165 237.169C372.907 237.172 371.648 237.174 370.352 237.177C369.018 237.183 367.685 237.19 366.351 237.197C362.723 237.214 359.095 237.225 355.467 237.233C353.201 237.238 350.935 237.244 348.669 237.251C341.583 237.27 334.496 237.284 327.41 237.292C319.225 237.302 311.04 237.328 302.854 237.369C296.531 237.399 290.207 237.414 283.883 237.417C280.105 237.419 276.327 237.428 272.548 237.453C268.994 237.477 265.441 237.481 261.886 237.471C259.96 237.47 258.033 237.489 256.106 237.509C254.959 237.502 253.812 237.495 252.631 237.488C251.634 237.49 250.637 237.493 249.611 237.495C246.279 236.863 245.094 235.609 243 233C242.469 231 242.469 231 242.5 229C242.485 228.01 242.485 228.01 242.469 227C243.869 221.73 247.625 220.5 252.617 220.492Z" fill="url(#paint5_linear_3129_98)"/>
<path d="M189 75C191.754 77.5362 192.876 79.0692 193.371 82.7969C192.885 86.9888 191.339 88.8009 188.688 92.0625C188.243 92.614 187.799 93.1654 187.341 93.7336C185.909 95.5014 184.455 97.2502 183 99C182.008 100.221 181.018 101.442 180.027 102.664C179.061 103.84 178.094 105.014 177.125 106.187C176.673 106.74 176.222 107.292 175.757 107.862C171.381 113.055 171.381 113.055 168 114C163.45 114.176 161.189 112.551 157.949 109.613C156.516 108.193 155.095 106.759 153.688 105.312C152.96 104.604 152.232 103.896 151.482 103.166C148.4 100.055 146.276 97.8737 144.941 93.6523C145.016 90.266 145.935 88.6549 148 86C151.612 83.5917 152.739 83.2764 157 84C159.905 86.0986 162.462 88.4753 165 91C169.452 86.6274 173.573 82.0142 177.695 77.3281C181.383 73.6032 184.114 73.6039 189 75Z" fill="url(#paint6_linear_3129_98)"/>
<defs>
<linearGradient id="paint0_linear_3129_98" x1="255.997" y1="7.31052" x2="255.997" y2="504.521" gradientUnits="userSpaceOnUse">
<stop stop-color="#5254DE"/>
<stop offset="1" stop-color="#5CB12E"/>
</linearGradient>
<linearGradient id="paint1_linear_3129_98" x1="169.067" y1="48.599" x2="169.067" y2="139.474" gradientUnits="userSpaceOnUse">
<stop stop-color="#5254DE"/>
<stop offset="1" stop-color="#5CB12E"/>
</linearGradient>
<linearGradient id="paint2_linear_3129_98" x1="315.319" y1="105.491" x2="315.319" y2="123.644" gradientUnits="userSpaceOnUse">
<stop stop-color="#5254DE"/>
<stop offset="1" stop-color="#5CB12E"/>
</linearGradient>
<linearGradient id="paint3_linear_3129_98" x1="315.34" y1="178.491" x2="315.34" y2="196.644" gradientUnits="userSpaceOnUse">
<stop stop-color="#5254DE"/>
<stop offset="1" stop-color="#5CB12E"/>
</linearGradient>
<linearGradient id="paint4_linear_3129_98" x1="315.322" y1="64.2696" x2="315.322" y2="82.3955" gradientUnits="userSpaceOnUse">
<stop stop-color="#5254DE"/>
<stop offset="1" stop-color="#5CB12E"/>
</linearGradient>
<linearGradient id="paint5_linear_3129_98" x1="315.186" y1="220.45" x2="315.186" y2="237.509" gradientUnits="userSpaceOnUse">
<stop stop-color="#5254DE"/>
<stop offset="1" stop-color="#5CB12E"/>
</linearGradient>
<linearGradient id="paint6_linear_3129_98" x1="169.156" y1="74.1408" x2="169.156" y2="114.013" gradientUnits="userSpaceOnUse">
<stop stop-color="#5254DE"/>
<stop offset="1" stop-color="#5CB12E"/>
</linearGradient>
</defs>
</svg>
